<?xml version="1.0" encoding="utf-8"?>
<!-- Generator: Adobe Illustrator 23.0.3, SVG Export Plug-In . SVG Version: 6.00 Build 0)  -->
<svg version="1.1" id="Layer_1" xmlns="http://www.w3.org/2000/svg" xmlns:xlink="http://www.w3.org/1999/xlink" x="0px" y="0px"
	 viewBox="0 0 501 501" style="enable-background:new 0 0 501 501;" xml:space="preserve">
<style type="text/css">
	.st0{display:none;}
	.st1{display:inline;}
	.st2{fill:none;stroke:#414042;stroke-width:3;stroke-miterlimit:10;}
	.st3{fill:#424143;}
	.st4{fill:#414042;}
</style>
<title>canvas_1</title>
<g class="st0">
	<g id="Layer_1-2" class="st1">
		<circle class="st2" cx="250.5" cy="250.5" r="184.3"/>
	</g>
</g>
<g>
	<g>
		<g>
			<path class="st3" d="M437.8,217.1c0-0.1,0-0.3-0.2-0.4c0.8-0.8,1.1-2,0.7-3.1c-0.4-1.1-1.3-2-2.4-2.2c0-0.1,0-0.3-0.1-0.4
				c-0.4-1.2-1.8-2-3-1.6c-0.3,0-0.5,0.2-0.8,0.4l-1-3.2l4.6-1.4l1.3,3.9c0.1,0.5,0.6,0.7,1,0.5l30.8-9.8c0.5-0.1,0.7-0.6,0.5-1
				l-7.3-23.1c-0.1-0.5-0.6-0.7-1-0.5L424,186.8c-0.5,0.1-0.7,0.6-0.5,1l9.8,30.8c0.4,1.2,1.8,2,3,1.6
				C437.5,219.7,438.2,218.3,437.8,217.1z M466.5,195.2l1,3.1l-4.6,1.4l-1-3.1L466.5,195.2z M460.4,197.2l1,3.1l-4.6,1.4l-1-3.1
				L460.4,197.2z M454.1,199.1l1,3.1l-4.6,1.4l-1-3.1L454.1,199.1z M448,201.1l1,3.1l-4.6,1.4l-1-3.1L448,201.1z M441.8,203l1,3.1
				l-4.6,1.4l-1-3.1L441.8,203z M426.2,191.1l-1-3.1l4.6-1.4l1,3.1L426.2,191.1z M432.3,189.1l-1-3.1l4.6-1.4l1,3.1L432.3,189.1z
				 M438.5,187.2l-1-3.1l4.6-1.4l1,3.1L438.5,187.2z M444.6,185.2l-1-3.1l4.6-1.4l1,3.1L444.6,185.2z M450.8,183.3l-1-3.1l4.6-1.4
				l1,3.1L450.8,183.3z M457,181.3l-1-3.1l4.6-1.4l1,3.1L457,181.3z M427.6,195.7l-1-3.1l4.6-1.4l1,3.1L427.6,195.7z M433.8,193.7
				l-1-3.1l4.6-1.4l1,3.1L433.8,193.7z M440,191.8l-1-3.1l4.6-1.4l1,3.1L440,191.8z M446.1,189.8l-1-3.1l4.6-1.4l1,3.1L446.1,189.8z
				 M452.2,187.9l-1-3.1l4.6-1.4l1,3.1L452.2,187.9z M458.4,186l-1-3.1l4.6-1.4l1,3.1L458.4,186z M429.1,200.3l-1-3.1l4.6-1.4l1,3.1
				L429.1,200.3z M435.2,198.4l-1-3.1l4.6-1.4l1,3.1L435.2,198.4z M441.4,196.4l-1-3.1l4.6-1.4l1,3.1L441.4,196.4z M447.5,194.5
				l-1-3.1l4.6-1.4l1,3.1L447.5,194.5z M453.7,192.6l-1-3.1l4.6-1.4l1,3.1L453.7,192.6z M459.9,190.6l-1-3.1l4.6-1.4l1,3.1
				L459.9,190.6z M430.5,205l-1-3.1l4.6-1.4l1,3.1L430.5,205z M436.7,203l-1-3.1l4.6-1.4l1,3.1L436.7,203z M442.9,201.1l-1-3.1
				l4.6-1.4l1,3.1L442.9,201.1z M449,199.1l-1-3.1l4.6-1.4l1,3.1L449,199.1z M455.2,197.1l-1-3.1l4.6-1.4l1,3.1L455.2,197.1z
				 M461.3,195.2l-1-3.1l4.6-1.4l1,3.1L461.3,195.2z M434.7,218l-2-6.1c-0.1-0.5,0.1-0.8,0.5-1c0.5-0.1,0.8,0.1,1,0.5
				c0,0.1,0,0.3,0,0.5c-0.1,0.3,0,0.5,0.2,0.7c0.2,0.2,0.4,0.3,0.7,0.3c0.7-0.1,1.4,0.5,1.7,1.1c0.2,0.6-0.1,1.5-0.7,1.8
				c-0.2,0.2-0.4,0.3-0.4,0.7c0,0.2,0.1,0.5,0.3,0.7c0.5,0.3,0.3,1.2-0.3,1.3C435.3,218.7,434.9,218.5,434.7,218z"/>
			<path class="st3" d="M465.4,178.6l2.3-0.7l1.7,5.4c0.1,0.5,0.6,0.7,1,0.5l0.8-0.3l1,3.1l-0.8,0.3c-0.5,0.1-0.7,0.6-0.5,1l1.7,5.4
				l-1.5,0.5l-4.2-13.1c-0.1-0.5-0.6-0.7-1-0.5c-0.5,0.1-0.7,0.6-0.5,1l6.1,19.3l-32,10.1c-0.5,0.1-0.7,0.6-0.5,1s0.6,0.7,1,0.5
				l32.7-10.3c0.5-0.1,0.7-0.6,0.5-1l-1.7-5.4l2.3-0.7c0.5-0.1,0.7-0.6,0.5-1l-1.7-5.4l0.8-0.3c0.5-0.1,0.7-0.6,0.5-1l-1.4-4.6
				c-0.1-0.5-0.6-0.7-1-0.5l-0.8,0.3l-1.7-5.4c-0.1-0.5-0.6-0.7-1-0.5l-2.3,0.7l-1.7-5.4c-0.1-0.5-0.6-0.7-1-0.5l-39.2,12.5
				l-1.4-4.6l3.2-1c1,1.6,2.9,2.4,4.8,1.9c0.1,0,10-3.2,8.8-7c-1.2-3.8-11.1-0.7-11.2-0.6c-1.8,0.6-3,2.4-2.8,4.2l-3.2,1l-0.7-2.3
				c-0.1-0.5-0.6-0.7-1-0.5c-0.5,0.1-0.7,0.6-0.5,1l3,9.2c0.1,0.5,0.6,0.7,1,0.5l39.2-12.5l1.7,5.4
				C464.5,178.5,465,178.7,465.4,178.6z M428.2,173.5c3.9-1.3,8.7-1.6,9.2-0.3c0.4,1.2-3.9,3.8-7.7,5c-1.2,0.4-2.6-0.3-3-1.6
				C426.3,175.3,426.9,173.9,428.2,173.5z"/>
		</g>
	</g>
</g>
<g>
	<path class="st3" d="M267,48.1c0.1,0.1,0.2,0.1,0.3,0.1c0.1,0,0.1,0,0.3-0.1c0.2-0.1,0.3-0.3,0.3-0.5l-0.1-3c0-0.1-0.1-0.3-0.2-0.4
		l-9.4-6.9c-0.6-0.5-1.5-0.5-2.2,0l-3.3,2.8l0-1c0-0.3-0.3-0.5-0.6-0.5l-2.4,0.1c-0.3,0-0.5,0.3-0.5,0.6l0.1,3.8l-2.1,1.8
		c-0.1,0.1-0.2,0.3-0.2,0.4l0.1,3c0,0.2,0.1,0.4,0.4,0.5c0.2,0.1,0.4,0.1,0.6-0.1l0.3-0.2l0.2,5.5l-5.4-4c-0.6-0.5-1.5-0.5-2.2,0
		l-7.2,6c-0.1,0.1-0.2,0.3-0.2,0.4l0.1,3c0,0.2,0.1,0.4,0.4,0.5c0.1,0.1,0.1,0.1,0.3,0.1c0.1,0,0.3-0.1,0.3-0.1l0.3-0.2l0.2,5.8
		l-0.6,0c-0.3,0-0.5,0.3-0.5,0.6c0,0.3,0.3,0.5,0.6,0.5l33.5-1.1c0.3,0,0.5-0.3,0.5-0.6c0-0.3-0.3-0.5-0.6-0.5l-0.6,0l-0.6-16.6
		L267,48.1L267,48.1z M250.2,39.8l1.2,0l0,1.4l-1.2,1.1L250.2,39.8z M248,45.6l8.7-7.4c0.2-0.2,0.5-0.2,0.8,0l9.2,6.7l0,1.6
		l-9.2-6.7c-0.1-0.1-0.2-0.1-0.3-0.1c-0.1,0-0.3,0.1-0.3,0.1l-8.7,7.4L248,45.6z M234.5,56.9l6.9-5.9c0.2-0.2,0.5-0.2,0.8,0l6.1,4.5
		l0,1.6l-6.2-4.5c-0.2-0.1-0.5-0.1-0.7,0l-7,5.9L234.5,56.9L234.5,56.9z M235.8,58.8l6.1-5.2l6.5,4.8l0.2,6.7l-2.5,0.1l-0.2-6.6
		c0-0.3-0.3-0.5-0.6-0.5l-6.6,0.2c-0.3,0-0.5,0.3-0.5,0.6l0.2,6.6l-2.5,0.1L235.8,58.8L235.8,58.8z M239.5,61.7l5.5-0.2l0,1.2
		l-5.5,0.2L239.5,61.7z M245,60.5l-5.5,0.2l0-1.2l5.5-0.2L245,60.5z M239.6,64.2l5.5-0.2l0,1.2l-5.5,0.2L239.6,64.2z M255.8,60.7
		L255.8,60.7c-0.2,0-0.3,0.1-0.4,0.1c-0.1,0.1-0.1,0.3-0.1,0.4c0,0.1,0.1,0.3,0.1,0.4c0.1,0.1,0.3,0.1,0.4,0.1c0,0,0,0,0.1,0l0.1,3
		l-2.5,0.1l-0.3-7.3l2.5-0.1L255.8,60.7z M266.1,64.6l-9.1,0.3l-0.3-7.8c0-0.3-0.3-0.5-0.6-0.5l-3.6,0.1c-0.3,0-0.5,0.3-0.5,0.6
		l0.3,7.8l-2.5,0.1l-0.6-17.5l7.9-6.7l8.3,6.1L266.1,64.6z"/>
	<path class="st3" d="M259.4,62.3l3.6-0.1c0.3,0,0.5-0.3,0.5-0.6l-0.2-4.8c0-0.3-0.3-0.5-0.6-0.5l-3.6,0.1c-0.3,0-0.5,0.3-0.5,0.6
		l0.2,4.8C258.9,62.1,259.1,62.3,259.4,62.3z M259.9,61.1l0-1.9l2.5-0.1l0,1.9L259.9,61.1z M262.3,57.4l0,0.7l-2.5,0.1l0-0.7
		L262.3,57.4z"/>
	<path class="st3" d="M259.1,53.9l3.6-0.1c0.3,0,0.5-0.3,0.5-0.6l-0.2-4.8c0-0.3-0.3-0.5-0.6-0.5l-3.6,0.1c-0.3,0-0.5,0.3-0.5,0.6
		l0.2,4.8C258.6,53.6,258.8,53.9,259.1,53.9z M259.7,52.8l0-1.9l2.5-0.1l0,1.9L259.7,52.8z M262,49l0,0.7l-2.5,0.1l0-0.7L262,49z"/>
	<path class="st3" d="M255.9,48.1l-3.6,0.1c-0.3,0-0.5,0.3-0.5,0.6l0.2,4.8c0,0.3,0.3,0.5,0.6,0.5l3.6-0.1c0.3,0,0.5-0.3,0.5-0.6
		l-0.2-4.8C256.5,48.3,256.2,48.1,255.9,48.1L255.9,48.1z M255.4,49.2l0,0.7l-2.5,0.1l0-0.7L255.4,49.2z M253,53l0-1.9l2.5-0.1
		l0,1.9L253,53z"/>
</g>
<g>
	<path class="st4" d="M402.7,90.8c0.5-0.6,0.7-1.5,0.5-2.3c-0.9-2.6-2.6-6.3-5.8-8.8c-1.2-1-2.5-1.8-3.8-2.6
		c0.7-1.3,0.7-2.9-0.1-4.2c-0.7-1.3-2-2.2-3.5-2.3c-0.2,0-0.3,0.1-0.4,0.2c-0.1,0.1-0.1,0.3,0,0.4c0.7,1.2,0.7,2.7-0.1,3.9
		c-0.3-0.1-0.7-0.2-1-0.3c-0.2,0-0.3,0-0.4,0.1L384,80c-0.1,0.1-0.1,0.3,0,0.4c0.1,0.3,0.3,0.6,0.5,0.9c-1,1.1-2.5,1.4-3.8,1
		c-0.1,0-0.3,0-0.4,0.1c-0.1,0.1-0.2,0.2-0.1,0.4c0,0,0,0.1,0,0.1c0.3,0.8,0.8,1.6,1.5,2.1c1.7,1.4,4.1,1.3,5.8-0.1
		c1.1,1.1,2.2,2.1,3.4,3.1c3.2,2.6,7.2,3.5,9.9,3.8C401.4,91.8,402.2,91.5,402.7,90.8z M390.9,72.5c0-0.3-0.1-0.7-0.2-1
		c1,0.3,1.8,1.1,2.3,2.1c0.4,1,0.4,2.1-0.1,3.1c-0.1-0.1-0.3-0.1-0.4-0.2c-0.1,0-0.1-0.1-0.2-0.1c-0.3-0.1-0.5-0.3-0.8-0.4
		c-0.1,0-0.1,0-0.1-0.1c-0.2-0.1-0.4-0.2-0.6-0.3c-0.1,0-0.2-0.1-0.2-0.1c-0.1,0-0.1-0.1-0.2-0.1C390.8,74.5,391,73.5,390.9,72.5z
		 M382.1,84.3c-0.4-0.3-0.7-0.6-0.9-1c1.4,0.2,2.7-0.3,3.7-1.3c0,0.1,0.1,0.1,0.1,0.2c0,0.1,0.1,0.1,0.2,0.2
		c0.1,0.2,0.3,0.3,0.4,0.5c0,0,0.1,0.1,0.1,0.1c0.2,0.2,0.4,0.4,0.6,0.7c0,0.1,0.1,0.1,0.2,0.2c0.1,0.1,0.2,0.2,0.3,0.3
		C385.4,85.4,383.5,85.4,382.1,84.3z M391.2,87.3c-1.3-1-2.5-2.1-3.6-3.3c-0.3-0.3-0.6-0.6-0.8-0.9c-0.4-0.4-0.7-0.8-1-1.2
		c-0.2-0.2-0.3-0.5-0.5-0.7c-0.2-0.3-0.4-0.6-0.5-0.8l3.8-4.8c0.3,0.1,0.6,0.2,0.9,0.3c1.1,0.5,2.2,1,3.3,1.7l0,0l0,0
		c1.4,0.8,2.7,1.8,4,2.8c1.7,1.4,3.2,3.2,4.2,5.2l-3.8,4.7C395,89.7,393,88.7,391.2,87.3z M400.7,91c-0.9-0.1-1.7-0.2-2.6-0.4
		l3.3-4.2c0.4,0.8,0.7,1.6,1,2.4c0.1,0.5,0,1.1-0.3,1.5C401.7,90.7,401.2,91,400.7,91z"/>
	<path class="st4" d="M395.7,80.4c-1.6-1.3-3.9-1-5.2,0.6c-1.3,1.6-1,3.9,0.6,5.2c1.6,1.3,3.9,1,5.2-0.6
		C397.5,84,397.3,81.7,395.7,80.4z M391.6,85.5c-1.1-0.9-1.4-2.3-0.7-3.5c0.6-1.2,2-1.8,3.3-1.4c1.3,0.4,2.2,1.6,2,3
		c-0.1,1.4-1.2,2.4-2.5,2.6C392.9,86.2,392.2,86,391.6,85.5z"/>
	<path class="st4" d="M391.8,83.5c0-0.2,0-0.4,0-0.7c0-0.1,0-0.3-0.1-0.4c-0.1-0.1-0.3-0.1-0.4-0.1c-0.1,0-0.3,0.2-0.3,0.3
		c-0.1,0.3-0.1,0.6-0.1,0.9l0,0.1c0,0.2,0.2,0.4,0.5,0.3C391.6,84,391.8,83.8,391.8,83.5z"/>
	<path class="st4" d="M395.2,84.3c-0.2-0.1-0.4-0.1-0.6,0.1c-0.6,0.7-1.6,0.8-2.3,0.3c-0.1-0.1-0.3-0.1-0.4-0.1
		c-0.1,0.1-0.2,0.2-0.3,0.3c0,0.1,0,0.3,0.2,0.4c1.1,0.8,2.6,0.7,3.4-0.4C395.4,84.7,395.4,84.4,395.2,84.3z"/>
	<path class="st4" d="M389.2,77.4c0.1-0.2,0.1-0.4-0.1-0.6c-0.2-0.1-0.4-0.1-0.6,0.1L386,80c-0.1,0.2-0.1,0.4,0.1,0.6
		c0.2,0.1,0.4,0.1,0.6-0.1L389.2,77.4z"/>
	<path class="st4" d="M397.1,87.9l1.5-1.9c0.1-0.1,0.1-0.3,0.1-0.4c-0.1-0.1-0.2-0.2-0.3-0.3c-0.1,0-0.3,0-0.4,0.2l-1.5,1.9
		c-0.1,0.2-0.1,0.4,0.1,0.6S397,88.1,397.1,87.9L397.1,87.9z"/>
	<path class="st4" d="M384.9,78c0.1,0,0.2-0.1,0.3-0.2l1-1.3c0.1-0.1,0.1-0.2,0.1-0.3c0-0.1-0.1-0.2-0.2-0.3l-5.2-3.7l-3.4-2.1
		c-0.2-0.1-0.4-0.1-0.5,0.1c-0.1,0.2-0.1,0.4,0,0.5l2.9,2.7l0,0l4.7,4.3C384.7,77.9,384.8,78,384.9,78z M380.5,73L380.5,73l4.8,3.4
		l-0.5,0.6L380.5,73z"/>
	<path class="st4" d="M381.6,71.7c0,0.1,0.1,0.2,0.2,0.3l4.7,3.6c0.2,0.1,0.4,0.1,0.6-0.1l1-1.3c0.1-0.1,0.1-0.2,0.1-0.4
		c0-0.1-0.1-0.2-0.2-0.3l-5.7-2.4c-0.1-0.1-0.3,0-0.4,0.1C381.7,71.4,381.6,71.6,381.6,71.7z M387.1,74.2l-0.4,0.5l-2-1.5
		L387.1,74.2z"/>
	<path class="st4" d="M384.5,78.8c0.1-0.2,0.1-0.4-0.1-0.6l-4.6-3.7c-0.1-0.1-0.3-0.1-0.4-0.1l0,0c-0.1,0.1-0.2,0.2-0.2,0.3
		c0,0.1,0,0.2,0.1,0.3l3.6,5c0.1,0.1,0.2,0.2,0.3,0.2c0.1,0,0.2-0.1,0.3-0.2L384.5,78.8z M381.5,77l2,1.6l-0.4,0.5L381.5,77z"/>
	<path class="st4" d="M400.7,89.2c0.1-0.2,0.1-0.4-0.1-0.6c-0.2-0.1-0.4-0.1-0.6,0l-0.8,1c-0.1,0.2-0.1,0.4,0.1,0.6
		c0.2,0.1,0.4,0.1,0.6-0.1L400.7,89.2z"/>
</g>
<g>
	<g>
		<g>
			<path class="st4" d="M328.7,57.9c0.1-0.5-0.1-0.9-0.5-1.2c-1.8-1.1-3.2-2.7-4-4.6c-0.2-0.5-0.4-1.1-0.5-1.6
				c0-0.2-0.3-0.4-0.5-0.3c-0.2,0-0.4,0.3-0.3,0.5c0.1,0.6,0.3,1.2,0.5,1.8c0.9,2.1,2.3,3.9,4.3,5c0.1,0.1,0.1,0.2,0.1,0.2
				c0,0.1-0.1,0.2-0.2,0.2c-2.2-0.1-4.2-0.8-6-2.1c-1.8-1.3-3.2-3-4-5.1c-2.3-5.8,0.5-12.5,6.4-14.8c2.1-0.8,4.3-1,6.5-0.6
				c2.1,0.4,4.1,1.4,5.6,2.9c0.1,0.1,0.1,0.2,0,0.3c0,0.1-0.1,0.1-0.2,0.1c-2.2-0.6-4.5-0.5-6.6,0.4c-2.1,0.8-3.8,2.3-4.9,4.1
				c-1.1,1.8-1.7,4-1.6,6.1c0,0.2,0.2,0.4,0.4,0.4c0.2,0,0.4-0.2,0.4-0.4c-0.3-4.1,2.2-7.9,6-9.5c2-0.8,4.1-0.9,6.1-0.3
				c0.5,0.1,0.9-0.1,1.2-0.5c0.2-0.4,0.2-0.9-0.2-1.3c-1.7-1.6-3.8-2.7-6-3.1c-2.3-0.5-4.7-0.3-7,0.6c-6.3,2.5-9.3,9.6-6.8,15.9
				c0.9,2.2,2.4,4.1,4.3,5.5c1.9,1.3,4.1,2.1,6.4,2.2C328.1,58.7,328.5,58.4,328.7,57.9z"/>
			<path class="st4" d="M357.5,49.8c0.3,0.7,1,1,1.7,0.7c0.7-0.3,1-1,0.7-1.7c-0.3-0.7-1-1-1.7-0.7
				C357.6,48.4,357.3,49.2,357.5,49.8z M359.2,49.2c0.1,0.2,0,0.5-0.3,0.6c-0.2,0.1-0.5,0-0.6-0.3c-0.1-0.2,0-0.5,0.3-0.6
				C358.8,48.8,359.1,49,359.2,49.2z"/>
			<path class="st4" d="M302.1,33.3c-0.3-0.7-1-1-1.7-0.7c-0.7,0.3-1,1-0.7,1.7s1,1,1.7,0.7C302,34.7,302.4,33.9,302.1,33.3z
				 M300.5,33.9c-0.1-0.2,0-0.5,0.3-0.6c0.2-0.1,0.5,0,0.6,0.3c0.1,0.2,0,0.5-0.3,0.6C300.8,34.3,300.6,34.2,300.5,33.9z"/>
			<circle class="st4" cx="328" cy="47.8" r="0.5"/>
			<circle class="st4" cx="318.6" cy="24" r="0.5"/>
			<circle class="st4" cx="415.8" cy="81.1" r="0.5"/>
		</g>
	</g>
</g>
<g>
	<g>
		<g>
			<path class="st4" d="M95.7,411.7c-1-1-2.5-1.7-4.1-1.7c-1.6,0-3,0.6-4.1,1.7c-1,1-1.7,2.5-1.7,4.1c0,1.6,0.7,3,1.7,4.1
				c1,1,2.5,1.7,4.1,1.7c1.6,0,3-0.6,4.1-1.7c1-1,1.7-2.5,1.7-4.1C97.4,414.2,96.8,412.7,95.7,411.7z M94.6,418.7
				c-0.8,0.8-1.8,1.2-3,1.2s-2.2-0.5-3-1.2c-0.8-0.8-1.2-1.8-1.2-3s0.5-2.2,1.2-3c0.8-0.8,1.8-1.2,3-1.2s2.2,0.5,3,1.2
				c0.8,0.8,1.2,1.8,1.2,3S95.4,418,94.6,418.7z"/>
		</g>
	</g>
	<g>
		<g>
			<path class="st4" d="M102.3,415H100c-0.4,0-0.8,0.4-0.8,0.8s0.4,0.8,0.8,0.8h2.3c0.4,0,0.8-0.4,0.8-0.8
				C103.1,415.3,102.8,415,102.3,415z"/>
		</g>
	</g>
	<g>
		<g>
			<path class="st4" d="M91.6,423.3c-0.4,0-0.8,0.4-0.8,0.8v2.3c0,0.4,0.4,0.8,0.8,0.8c0.4,0,0.8-0.4,0.8-0.8v-2.3
				C92.4,423.7,92.1,423.3,91.6,423.3z"/>
		</g>
	</g>
	<g>
		<g>
			<path class="st4" d="M99.8,422.8l-1.7-1.7c-0.3-0.3-0.8-0.3-1.1,0c-0.3,0.3-0.3,0.8,0,1.1l1.7,1.7c0.3,0.3,0.8,0.3,1.1,0
				S100.1,423.1,99.8,422.8z"/>
		</g>
	</g>
	<g>
		<g>
			<path class="st4" d="M91.6,404.3c-0.4,0-0.8,0.4-0.8,0.8v2.3c0,0.4,0.4,0.8,0.8,0.8c0.4,0,0.8-0.4,0.8-0.8v-2.3
				C92.4,404.6,92.1,404.3,91.6,404.3z"/>
		</g>
	</g>
	<g>
		<g>
			<path class="st4" d="M99.8,407.7c-0.3-0.3-0.8-0.3-1.1,0l-1.7,1.7c-0.3,0.3-0.3,0.8,0,1.1c0.3,0.3,0.8,0.3,1.1,0l1.7-1.7
				C100.1,408.4,100.1,408,99.8,407.7z"/>
		</g>
	</g>
	<g>
		<g>
			<path class="st4" d="M83.3,415H81c-0.4,0-0.8,0.4-0.8,0.8c0,0.4,0.3,0.8,0.8,0.8h2.3c0.4,0,0.8-0.4,0.8-0.8
				C84.1,415.3,83.7,415,83.3,415z"/>
		</g>
	</g>
	<g>
		<g>
			<path class="st4" d="M86.3,421.1c-0.3-0.3-0.8-0.3-1.1,0l-1.7,1.7c-0.3,0.3-0.3,0.8,0,1.1s0.8,0.3,1.1,0l1.7-1.7
				C86.6,421.9,86.6,421.4,86.3,421.1z"/>
		</g>
	</g>
	<g>
		<g>
			<path class="st4" d="M86.3,409.3l-1.7-1.7c-0.3-0.3-0.8-0.3-1.1,0c-0.3,0.3-0.3,0.8,0,1.1l1.7,1.7c0.3,0.3,0.8,0.3,1.1,0
				C86.6,410.1,86.6,409.6,86.3,409.3z"/>
		</g>
	</g>
</g>
<g>
	<path class="st4" d="M55,175c-2.1-1.1-4.7-0.4-5.8,1.6c-0.7,1.2-0.8,2.7-0.3,4c0,0,0,0-0.1,0c0,0-0.1,0.1-0.1,0.1c0,0,0,0-0.1,0.1
		c0,0-0.1,0.1-0.1,0.1c0,0,0,0-0.1,0.1c0,0-0.1,0.1-0.1,0.1c0,0,0,0-0.1,0.1c-0.1,0.1-0.1,0.1-0.1,0.2c-0.7,1.1-0.3,2.5,0.8,3.2
		c0,0,0.1,0,0.1,0l0,0c0,1.2,0.6,2.5,1.7,3.1c1.6,0.9,3.6,0.4,4.6-1.2l3.2-5.5c0,0,0,0,0-0.1l0,0l0,0c0,0,0,0,0-0.1l1.3-2.2
		c0.9-1.5,0.4-3.4-1.1-4.3C57.6,173.8,56,174,55,175z M59.5,178.5l-1.3,2.2c0,0,0,0,0,0l0,0.1l0,0c0,0,0,0,0,0l-3.2,5.5
		c-0.8,1.3-2.5,1.8-3.8,1c-0.9-0.5-1.5-1.7-1.4-2.8l0-0.2l-0.1-0.1c0,0-0.1,0-0.1-0.1l0,0l0,0c0,0,0,0-0.1,0
		c-0.9-0.5-1.1-1.6-0.6-2.5c0-0.1,0.1-0.1,0.1-0.2c0,0,0,0,0,0c0-0.1,0.1-0.1,0.1-0.2c0,0,0,0,0,0c0.1-0.1,0.1-0.1,0.2-0.1
		c0,0,0,0,0.1,0c0.1,0,0.1-0.1,0.2-0.1c0.5-0.3,1.2-0.3,1.7,0.1c0.1,0.1,0.3,0,0.4-0.1c0.1-0.1,0-0.3-0.1-0.4
		c-0.6-0.4-1.3-0.4-2-0.2c-0.5-1.1-0.4-2.5,0.3-3.5c1-1.7,3.2-2.3,5.1-1.5c-0.2,0.2-0.4,0.6-0.5,0.9c-0.1,0.1,0,0.3,0.1,0.3
		c0.1,0,0.3,0,0.3-0.1c0,0,0,0,0,0c0.2-0.5,0.6-1,0.6-1c0.8-0.9,2.2-1.1,3.3-0.5C59.8,175.7,60.2,177.3,59.5,178.5z"/>
	<path class="st4" d="M53.3,188.3c-0.9,0.2-1.8,0.1-2.6-0.4c-1.1-0.6-1.8-1.9-1.8-3.2c0,0,0,0,0,0c-1.2-0.7-1.5-2.2-0.9-3.4
		c0-0.1,0.1-0.2,0.2-0.2c0,0,0,0,0,0c0.1-0.1,0.1-0.1,0.1-0.2c0,0,0,0,0.1-0.1c0.1-0.1,0.1-0.1,0.1-0.1c0,0,0.1,0,0.1-0.1
		c0,0,0.1-0.1,0.1-0.1c-0.5-1.3-0.4-2.8,0.3-4c1.2-2,3.8-2.8,5.9-1.7c1-1,2.7-1.1,3.9-0.4c1.5,0.9,2,2.9,1.1,4.4l-1.3,2.2
		c0,0,0,0.1,0,0.1l0,0c0,0,0,0.1,0,0.1l-3.2,5.5C54.9,187.5,54.2,188,53.3,188.3z M51.9,174.7c-1.1,0.3-2,0.9-2.6,1.9
		c-0.7,1.2-0.8,2.6-0.3,3.9l0,0.1l-0.1,0.1c0,0-0.1,0.1-0.1,0.1c0,0,0,0-0.1,0.1c0,0-0.1,0.1-0.1,0.1c0,0,0,0-0.1,0.1
		c0,0-0.1,0.1-0.1,0.1l0,0.1c0,0.1-0.1,0.1-0.1,0.2c-0.6,1-0.3,2.4,0.8,3c0,0,0.1,0,0.1,0l0.1,0l0,0.1c0,1.2,0.6,2.4,1.6,3
		c0.7,0.4,1.6,0.6,2.4,0.3c0.8-0.2,1.5-0.7,2-1.5l3.2-5.5c0,0,0,0,0-0.1l0-0.1c0,0,0,0,0-0.1l1.3-2.2c0.4-0.7,0.5-1.5,0.3-2.3
		c-0.2-0.8-0.7-1.4-1.4-1.8c-1.2-0.7-2.7-0.5-3.7,0.4l-0.1,0.1l-0.1,0C54,174.6,52.9,174.5,51.9,174.7z M53.2,187.7
		c-0.7,0.2-1.5,0.1-2.2-0.3c-1-0.6-1.6-1.8-1.5-2.9l0-0.1l-0.1,0c0,0-0.1,0-0.1-0.1l-0.1,0c0,0,0,0-0.1,0c-0.9-0.5-1.2-1.7-0.7-2.7
		c0-0.1,0.1-0.1,0.1-0.2l0,0c0.1-0.1,0.1-0.1,0.2-0.2l0,0c0.1-0.1,0.1-0.1,0.2-0.2l0,0c0.1,0,0.1-0.1,0.2-0.1
		c0.6-0.3,1.3-0.3,1.9,0.1c0.1,0,0.1,0,0.2,0c0,0,0-0.1,0-0.1c0,0,0-0.1-0.1-0.1c-0.6-0.3-1.2-0.4-1.8-0.2l-0.1,0l0-0.1
		c-0.5-1.2-0.4-2.6,0.3-3.7c1-1.8,3.3-2.4,5.2-1.5l0.1,0.1l-0.1,0.1c-0.1,0.2-0.4,0.5-0.5,0.9c0,0.1,0,0.1,0.1,0.2
		c0.1,0,0.1,0,0.2-0.1c0.2-0.6,0.6-1.1,0.6-1.1c0.9-1,2.3-1.2,3.5-0.5c0.6,0.4,1.1,1,1.2,1.7c0.2,0.7,0.1,1.4-0.3,2.1l-1.3,2.2
		c0,0,0,0,0,0l-0.1,0.1c0,0,0,0,0,0l-3.2,5.5C54.6,187.1,53.9,187.6,53.2,187.7z M48.9,181.3L48.9,181.3c0,0.1,0,0.2,0,0.2l0,0
		c0,0.1-0.1,0.1-0.1,0.2c-0.5,0.8-0.2,1.8,0.6,2.3c0,0,0,0,0,0l0.1,0.1c0,0,0.1,0,0.1,0.1l0.2,0.1l0,0.2c-0.1,1,0.5,2.1,1.4,2.7
		c0.6,0.4,1.3,0.5,2,0.3c0.7-0.2,1.3-0.6,1.6-1.2l4.6-7.8c0.3-0.6,0.4-1.2,0.3-1.9c-0.2-0.6-0.6-1.2-1.1-1.5c-1-0.6-2.4-0.4-3.1,0.5
		c0,0-0.4,0.5-0.6,1c0,0,0,0,0,0.1c-0.1,0.2-0.3,0.2-0.5,0.2c-0.1,0-0.2-0.1-0.2-0.2c0-0.1,0-0.2,0-0.3c0.1-0.3,0.3-0.6,0.4-0.8
		c-1.7-0.8-3.8-0.1-4.7,1.5c-0.6,1-0.7,2.2-0.3,3.3c0.7-0.2,1.4-0.1,1.9,0.2c0.1,0.1,0.2,0.1,0.2,0.2c0,0.1,0,0.2,0,0.3
		c-0.1,0.2-0.4,0.2-0.5,0.1c-0.5-0.3-1.1-0.3-1.6-0.1c-0.1,0-0.1,0.1-0.2,0.1l0,0c-0.1,0-0.1,0.1-0.2,0.1L48.9,181.3z"/>
</g>
<g>
	<path class="st4" d="M47.2,167.2c-1.4-0.7-3.2-0.3-4,1.1c-0.5,0.8-0.6,1.9-0.2,2.7c0,0,0,0,0,0c0,0-0.1,0-0.1,0.1c0,0,0,0-0.1,0
		c0,0-0.1,0.1-0.1,0.1c0,0,0,0,0,0c0,0-0.1,0.1-0.1,0.1c0,0,0,0,0,0c0,0-0.1,0.1-0.1,0.1c-0.4,0.8-0.2,1.7,0.6,2.2c0,0,0,0,0.1,0
		l0,0c0,0.8,0.4,1.7,1.2,2.1c1.1,0.6,2.5,0.3,3.1-0.8l2.2-3.7c0,0,0,0,0,0l0,0l0,0c0,0,0,0,0,0l0.9-1.5c0.6-1,0.3-2.3-0.7-2.9
		C49,166.4,47.9,166.5,47.2,167.2z M50.2,169.6l-0.9,1.5c0,0,0,0,0,0l0,0l0,0c0,0,0,0,0,0l-2.2,3.7c-0.5,0.9-1.7,1.2-2.6,0.7
		c-0.6-0.4-1-1.2-1-1.9l0-0.1l-0.1-0.1c0,0,0,0-0.1,0l0,0l0,0c0,0,0,0,0,0c-0.6-0.3-0.8-1.1-0.4-1.7c0,0,0.1-0.1,0.1-0.1
		c0,0,0,0,0,0c0,0,0.1-0.1,0.1-0.1c0,0,0,0,0,0c0,0,0.1-0.1,0.1-0.1c0,0,0,0,0,0c0,0,0.1,0,0.1-0.1c0.4-0.2,0.8-0.2,1.2,0
		c0.1,0,0.2,0,0.2-0.1c0-0.1,0-0.2-0.1-0.2c-0.4-0.2-0.9-0.3-1.3-0.1c-0.3-0.8-0.2-1.7,0.2-2.4c0.7-1.2,2.2-1.6,3.4-1
		c-0.1,0.1-0.2,0.4-0.3,0.6c0,0.1,0,0.2,0.1,0.2c0.1,0,0.2,0,0.2-0.1c0,0,0,0,0,0c0.1-0.4,0.4-0.7,0.4-0.7c0.6-0.6,1.5-0.8,2.3-0.3
		C50.4,167.7,50.7,168.8,50.2,169.6z"/>
	<path class="st4" d="M46,176.3c-0.6,0.1-1.2,0.1-1.8-0.3c-0.7-0.4-1.2-1.3-1.2-2.2c0,0,0,0,0,0c-0.8-0.5-1.1-1.5-0.6-2.3
		c0-0.1,0.1-0.1,0.1-0.2c0,0,0,0,0,0c0,0,0.1-0.1,0.1-0.1c0,0,0,0,0,0c0,0,0.1-0.1,0.1-0.1c0,0,0,0,0.1,0c0,0,0.1,0,0.1-0.1
		c-0.3-0.9-0.3-1.9,0.2-2.8c0.8-1.4,2.6-1.9,4-1.2c0.7-0.7,1.8-0.8,2.7-0.3c1,0.6,1.4,2,0.8,3l-0.9,1.5c0,0,0,0,0,0.1l0,0
		c0,0,0,0,0,0.1l-2.2,3.7C47.1,175.7,46.6,176.1,46,176.3z M45,167c-0.7,0.2-1.4,0.6-1.8,1.3c-0.5,0.8-0.5,1.8-0.2,2.7l0,0.1
		l-0.1,0.1c0,0-0.1,0-0.1,0.1c0,0,0,0,0,0c0,0-0.1,0-0.1,0.1c0,0,0,0,0,0c0,0-0.1,0.1-0.1,0.1l0,0c0,0-0.1,0.1-0.1,0.1
		c-0.4,0.7-0.2,1.6,0.5,2.1c0,0,0,0,0.1,0l0.1,0l0,0.1c0,0.8,0.4,1.6,1.1,2c0.5,0.3,1.1,0.4,1.7,0.2c0.6-0.1,1-0.5,1.3-1l2.2-3.7
		c0,0,0,0,0,0l0,0c0,0,0,0,0,0l0.9-1.5c0.3-0.5,0.4-1,0.2-1.5c-0.1-0.5-0.5-1-0.9-1.2c-0.8-0.5-1.8-0.3-2.5,0.3l0,0l-0.1,0
		C46.5,166.9,45.7,166.9,45,167z M45.9,175.9c-0.5,0.1-1,0.1-1.5-0.2c-0.7-0.4-1.1-1.2-1-2l0-0.1l0,0c0,0,0,0-0.1,0l-0.1,0
		c0,0,0,0,0,0c-0.6-0.4-0.8-1.2-0.5-1.8c0-0.1,0.1-0.1,0.1-0.1l0,0c0,0,0.1-0.1,0.1-0.1l0,0c0,0,0.1-0.1,0.1-0.1l0,0
		c0.1,0,0.1-0.1,0.1-0.1c0.4-0.2,0.9-0.2,1.3,0c0,0,0.1,0,0.1,0c0,0,0,0,0-0.1s0,0,0-0.1c-0.4-0.2-0.8-0.3-1.3-0.1l-0.1,0l0-0.1
		c-0.3-0.8-0.3-1.8,0.2-2.5c0.7-1.2,2.3-1.7,3.6-1l0.1,0l-0.1,0.1c-0.1,0.1-0.2,0.4-0.3,0.6c0,0,0,0.1,0,0.1c0,0,0.1,0,0.1,0
		c0.2-0.4,0.4-0.7,0.4-0.7c0.6-0.7,1.6-0.8,2.4-0.4c0.4,0.3,0.7,0.7,0.9,1.1c0.1,0.5,0.1,1-0.2,1.4l-0.9,1.5c0,0,0,0,0,0l0,0.1
		c0,0,0,0,0,0l-2.2,3.7C46.8,175.5,46.4,175.8,45.9,175.9z M43,171.5L43,171.5c0,0.1,0,0.1,0,0.2l0,0c0,0-0.1,0.1-0.1,0.1
		c-0.3,0.5-0.1,1.2,0.4,1.6c0,0,0,0,0,0l0.1,0c0,0,0,0,0.1,0l0.1,0.1l0,0.2c-0.1,0.7,0.3,1.5,0.9,1.8c0.4,0.2,0.9,0.3,1.4,0.2
		c0.5-0.1,0.9-0.4,1.1-0.8l3.2-5.3c0.2-0.4,0.3-0.8,0.2-1.3c-0.1-0.4-0.4-0.8-0.8-1c-0.7-0.4-1.6-0.3-2.1,0.3c0,0-0.3,0.3-0.4,0.7
		c0,0,0,0,0,0c-0.1,0.1-0.2,0.2-0.3,0.1c-0.1,0-0.1-0.1-0.1-0.1c0-0.1,0-0.1,0-0.2c0.1-0.2,0.2-0.4,0.3-0.6c-1.2-0.5-2.6-0.1-3.2,1
		c-0.4,0.7-0.5,1.5-0.2,2.3c0.4-0.1,0.9-0.1,1.3,0.2c0.1,0,0.1,0.1,0.1,0.2c0,0.1,0,0.1,0,0.2c-0.1,0.1-0.2,0.2-0.4,0.1
		c-0.3-0.2-0.7-0.2-1.1,0c0,0-0.1,0-0.1,0.1l0,0C43.1,171.5,43.1,171.5,43,171.5L43,171.5z"/>
</g>
<g>
	<path class="st4" d="M457.3,247.6c2.3-0.4,4-2.4,3.8-4.8c-0.1-1.4-1-2.7-2.2-3.4c0,0,0,0,0-0.1c0-0.1,0-0.1,0.1-0.2
		c0,0,0-0.1,0-0.1c0-0.1,0-0.1,0-0.2c0,0,0-0.1,0-0.1c0-0.1,0-0.1,0-0.2c0,0,0-0.1,0-0.1c0-0.1,0-0.2,0-0.3
		c-0.1-1.3-1.3-2.2-2.5-2.1c0,0-0.1,0-0.1,0l0,0c-0.7-1-2-1.6-3.2-1.5c-1.8,0.2-3.2,1.8-3,3.6l0.6,6.3c0,0,0,0.1,0,0.1l0,0l0,0
		c0,0,0,0.1,0,0.1l0.2,2.5c0.2,1.7,1.7,3,3.4,2.8C455.9,250.1,457.1,249,457.3,247.6z M451.6,247.4l-0.2-2.5c0,0,0,0,0,0l0-0.1
		l0-0.1c0,0,0,0,0,0l-0.6-6.3c-0.1-1.5,1-2.9,2.5-3.1c1.1-0.1,2.2,0.5,2.8,1.4l0.1,0.1l0.2,0c0,0,0.1,0,0.1,0l0,0l0.1,0
		c0,0,0,0,0.1,0c1-0.1,1.9,0.6,2,1.6c0,0.1,0,0.2,0,0.2c0,0,0,0,0,0.1c0,0.1,0,0.1,0,0.2c0,0,0,0,0,0c0,0.1,0,0.1-0.1,0.2
		c0,0,0,0,0,0.1c0,0.1-0.1,0.1-0.1,0.2c-0.3,0.5-0.8,0.9-1.4,1c-0.1,0-0.2,0.1-0.2,0.3c0,0.1,0.1,0.2,0.3,0.2c0.7-0.1,1.3-0.5,1.7-1
		c1,0.6,1.8,1.8,1.9,3c0.2,2-1.2,3.8-3.2,4.2c0-0.3,0-0.7-0.1-1c0-0.1-0.2-0.2-0.3-0.2c-0.1,0-0.2,0.2-0.2,0.3c0,0,0,0,0,0
		c0.1,0.6,0.1,1.2,0.1,1.2c-0.1,1.2-1.1,2.2-2.4,2.4C453,249.8,451.7,248.8,451.6,247.4z"/>
	<path class="st4" d="M450.9,235.9c0.6-0.7,1.4-1.2,2.3-1.2c1.2-0.1,2.5,0.5,3.3,1.5c0,0,0,0,0,0c1.3-0.1,2.6,0.9,2.7,2.2
		c0,0.1,0,0.2,0,0.3c0,0,0,0,0,0.1c0,0.1,0,0.2,0,0.2c0,0,0,0.1,0,0.1c0,0.1,0,0.1,0,0.2c0,0,0,0.1,0,0.1c0,0,0,0.1,0,0.1
		c1.2,0.8,2,2.1,2.1,3.5c0.2,2.3-1.4,4.5-3.8,4.9c-0.3,1.4-1.5,2.5-2.9,2.6c-1.8,0.2-3.4-1.1-3.5-2.9l-0.2-2.5c0,0,0-0.1,0-0.1l0,0
		c0,0,0-0.1,0-0.1l-0.6-6.3C450,237.4,450.3,236.5,450.9,235.9z M460,246c0.7-0.8,1.1-1.9,0.9-3.1c-0.1-1.4-0.9-2.6-2.1-3.3
		l-0.1-0.1l0.1-0.2c0-0.1,0-0.1,0.1-0.2c0,0,0-0.1,0-0.1c0-0.1,0-0.1,0-0.2c0,0,0-0.1,0-0.1c0-0.1,0-0.1,0-0.2l0-0.1
		c0-0.1,0-0.2,0-0.2c-0.1-1.2-1.2-2.1-2.4-2c0,0-0.1,0-0.1,0l-0.1,0l-0.1-0.1c-0.7-1-1.9-1.6-3.1-1.5c-0.8,0.1-1.6,0.5-2.2,1.1
		c-0.5,0.7-0.8,1.5-0.7,2.3l0.6,6.3c0,0,0,0,0,0.1l0,0.1c0,0,0,0,0,0.1l0.2,2.5c0.1,0.8,0.5,1.5,1.1,2c0.6,0.5,1.4,0.7,2.2,0.7
		c1.3-0.1,2.5-1.2,2.7-2.5l0-0.1l0.1,0C458.4,247.3,459.3,246.7,460,246z M451.3,236.2c0.5-0.6,1.2-1,2-1.1c1.1-0.1,2.3,0.5,2.9,1.5
		l0,0.1l0.1,0c0,0,0.1,0,0.1,0l0.1,0c0,0,0,0,0.1,0c1.1-0.1,2,0.7,2.1,1.7c0,0.1,0,0.2,0,0.3l0,0.1c0,0.1,0,0.2,0,0.2l0,0
		c0,0.1,0,0.2-0.1,0.2l0,0c0,0.1-0.1,0.2-0.1,0.2c-0.3,0.6-0.9,1-1.5,1c-0.1,0-0.1,0.1-0.1,0.1c0,0,0,0.1,0,0.1c0,0,0.1,0,0.1,0
		c0.6-0.1,1.2-0.4,1.6-0.9l0.1-0.1l0.1,0.1c1.1,0.7,1.8,1.9,1.9,3.1c0.2,2-1.3,3.9-3.3,4.3l-0.1,0l0-0.2c0-0.3,0-0.6-0.1-1
		c0-0.1-0.1-0.1-0.2-0.1c-0.1,0-0.1,0.1-0.1,0.1c0.2,0.6,0.1,1.2,0.1,1.3c-0.1,1.3-1.2,2.3-2.5,2.5c-0.7,0.1-1.4-0.1-2-0.6
		c-0.6-0.5-0.9-1.1-1-1.8l-0.2-2.5c0,0,0,0,0,0l0-0.1c0,0,0,0,0-0.1l-0.6-6.3C450.5,237.5,450.8,236.8,451.3,236.2z M458.5,238.9
		l-0.1,0c0-0.1,0-0.1,0-0.2l0-0.1c0-0.1,0-0.1,0-0.2c-0.1-0.9-0.9-1.6-1.8-1.5c0,0,0,0-0.1,0l-0.1,0c0,0-0.1,0-0.1,0l-0.2,0
		l-0.1-0.2c-0.5-0.9-1.7-1.4-2.7-1.3c-0.7,0.1-1.4,0.4-1.8,1c-0.5,0.6-0.7,1.2-0.6,2l0.9,9c0.1,0.7,0.4,1.2,0.9,1.7
		c0.5,0.4,1.1,0.6,1.8,0.6c1.2-0.1,2.1-1.1,2.3-2.2c0,0,0-0.6-0.1-1.2c0,0,0,0,0-0.1c0-0.2,0.1-0.4,0.3-0.4c0.1,0,0.2,0,0.3,0
		c0.1,0.1,0.2,0.1,0.2,0.2c0.1,0.3,0.1,0.7,0.1,0.9c1.8-0.4,3.1-2.1,3-4c-0.1-1.1-0.8-2.2-1.7-2.8c-0.4,0.5-1,0.9-1.7,0.9
		c-0.1,0-0.2,0-0.3-0.1s-0.1-0.2-0.1-0.3c0-0.2,0.1-0.4,0.3-0.4c0.6-0.1,1.1-0.4,1.3-0.9c0-0.1,0.1-0.1,0.1-0.2l0-0.1
		c0-0.1,0-0.1,0.1-0.2L458.5,238.9z"/>
</g>
<g>
	<path class="st4" d="M392.9,400.6c1.6,1.7,4.3,1.8,6,0.3c1.1-0.9,1.6-2.3,1.6-3.7c0,0,0,0,0.1,0c0.1,0,0.1,0,0.2,0c0,0,0.1,0,0.1,0
		c0.1,0,0.1,0,0.2-0.1c0,0,0.1,0,0.1,0c0.1,0,0.1-0.1,0.2-0.1c0,0,0,0,0.1,0c0.1,0,0.1-0.1,0.2-0.2c1-0.8,1.1-2.3,0.2-3.3
		c0,0,0,0-0.1-0.1l0,0c0.4-1.1,0.2-2.6-0.6-3.5c-1.2-1.4-3.3-1.5-4.7-0.3l-4.8,4.1c0,0,0,0-0.1,0.1l0,0l0,0c0,0,0,0-0.1,0l-1.9,1.7
		c-1.3,1.1-1.4,3.1-0.3,4.4C390.1,400.9,391.6,401.2,392.9,400.6z M389.8,395.8l1.9-1.7c0,0,0,0,0,0l0.1,0l0,0c0,0,0,0,0,0l4.8-4.1
		c1.2-1,2.9-0.9,4,0.3c0.7,0.8,0.9,2.1,0.5,3.1l-0.1,0.1l0.1,0.1c0,0,0,0.1,0.1,0.1l0,0l0,0c0,0,0,0,0,0c0.7,0.8,0.6,1.9-0.2,2.6
		c-0.1,0.1-0.1,0.1-0.2,0.1c0,0,0,0-0.1,0c-0.1,0-0.1,0.1-0.2,0.1c0,0,0,0,0,0c-0.1,0-0.1,0.1-0.2,0.1c0,0,0,0-0.1,0
		c-0.1,0-0.1,0-0.2,0c-0.6,0.1-1.2-0.1-1.6-0.6c-0.1-0.1-0.3-0.1-0.4,0s-0.1,0.3,0,0.4c0.5,0.5,1.1,0.8,1.8,0.8
		c0.1,1.2-0.5,2.5-1.4,3.3c-1.5,1.3-3.8,1.2-5.3-0.2c0.2-0.2,0.5-0.4,0.8-0.7c0.1-0.1,0.1-0.3,0-0.4c-0.1-0.1-0.2-0.1-0.3,0
		c0,0,0,0,0,0c-0.4,0.4-0.9,0.8-0.9,0.8c-1.1,0.6-2.5,0.4-3.3-0.6C388.6,398.4,388.7,396.7,389.8,395.8z"/>
	<path class="st4" d="M398.8,388.6c0.9,0.1,1.7,0.5,2.4,1.2c0.8,0.9,1.1,2.4,0.7,3.5c0,0,0,0,0,0c0.9,1,0.8,2.6-0.3,3.5
		c-0.1,0.1-0.1,0.1-0.2,0.2c0,0,0,0,0,0c-0.1,0-0.1,0.1-0.2,0.1c0,0,0,0-0.1,0c-0.1,0-0.1,0.1-0.2,0.1c0,0-0.1,0-0.1,0
		c0,0-0.1,0-0.1,0c0.1,1.4-0.5,2.8-1.6,3.7c-1.8,1.5-4.5,1.4-6.2-0.3c-1.3,0.6-2.9,0.2-3.8-0.9c-1.2-1.4-1-3.4,0.3-4.6l1.9-1.7
		c0,0,0,0,0.1-0.1l0,0c0,0,0,0,0.1-0.1l4.8-4.1C397,388.8,397.9,388.5,398.8,388.6z M395.8,401.8c1.1,0.1,2.2-0.2,3.1-1
		c1-0.9,1.6-2.2,1.5-3.6l0-0.1l0.2,0c0.1,0,0.1,0,0.2,0c0,0,0.1,0,0.1,0c0,0,0.1,0,0.1-0.1c0,0,0.1,0,0.1,0c0,0,0.1-0.1,0.1-0.1
		l0.1,0c0.1,0,0.1-0.1,0.2-0.2c0.9-0.8,1-2.2,0.2-3.1c0,0,0,0-0.1-0.1l-0.1-0.1l0-0.1c0.4-1.1,0.2-2.5-0.6-3.4
		c-0.6-0.6-1.3-1-2.2-1.1c-0.9-0.1-1.7,0.2-2.3,0.8l-4.8,4.1c0,0,0,0-0.1,0l-0.1,0c0,0,0,0-0.1,0l-1.9,1.7c-0.6,0.5-1,1.2-1,2
		c-0.1,0.8,0.2,1.6,0.7,2.2c0.9,1,2.4,1.3,3.6,0.8l0.1,0l0.1,0.1C393.8,401.3,394.8,401.7,395.8,401.8z M398.7,389.1
		c0.7,0.1,1.5,0.4,2,1c0.7,0.9,0.9,2.2,0.5,3.2l0,0.1l0.1,0.1c0,0,0,0,0.1,0.1l0.1,0.1c0,0,0,0,0,0.1c0.7,0.8,0.6,2-0.2,2.7
		c-0.1,0.1-0.1,0.1-0.2,0.2l-0.1,0c-0.1,0-0.1,0.1-0.2,0.1l0,0c-0.1,0-0.2,0.1-0.2,0.1l0,0c-0.1,0-0.2,0-0.2,0
		c-0.7,0.1-1.3-0.2-1.7-0.7c0-0.1-0.1-0.1-0.2,0c0,0,0,0.1,0,0.1s0,0.1,0,0.1c0.4,0.5,1,0.8,1.7,0.8l0.1,0l0,0.1
		c0.1,1.3-0.5,2.6-1.4,3.4c-1.6,1.3-3.9,1.2-5.4-0.2l-0.1-0.1l0.1-0.1c0.2-0.2,0.5-0.4,0.8-0.7c0-0.1,0-0.1,0-0.2c0,0-0.1,0-0.2,0
		c-0.4,0.5-0.9,0.8-1,0.8c-1.1,0.6-2.6,0.4-3.5-0.6c-0.5-0.6-0.7-1.3-0.7-2c0.1-0.7,0.4-1.4,0.9-1.9l1.9-1.7c0,0,0,0,0,0l0.1-0.1
		c0,0,0,0,0,0l4.8-4.1C397.2,389.3,398,389,398.7,389.1z M400.7,396.6l-0.1-0.1c0.1,0,0.1-0.1,0.2-0.1l0,0c0.1,0,0.1-0.1,0.2-0.1
		c0.7-0.6,0.8-1.7,0.2-2.4c0,0,0,0,0,0l-0.1-0.1c0,0,0-0.1-0.1-0.1l-0.2-0.2l0.1-0.2c0.4-0.9,0.2-2.2-0.4-3
		c-0.5-0.5-1.1-0.9-1.8-0.9c-0.7-0.1-1.4,0.2-1.9,0.6l-6.9,5.9c-0.5,0.4-0.8,1-0.8,1.7c0,0.7,0.2,1.3,0.6,1.8
		c0.8,0.9,2.1,1.1,3.1,0.6c0,0,0.5-0.3,0.9-0.8c0,0,0,0,0,0c0.1-0.1,0.4-0.1,0.5,0c0.1,0.1,0.1,0.2,0.1,0.3c0,0.1,0,0.2-0.1,0.3
		c-0.2,0.3-0.5,0.5-0.7,0.6c1.4,1.3,3.6,1.3,5,0.1c0.9-0.7,1.4-1.9,1.3-3.1c-0.7,0-1.3-0.3-1.8-0.8c-0.1-0.1-0.1-0.2-0.1-0.3
		c0-0.1,0.1-0.2,0.1-0.3c0.2-0.1,0.4-0.1,0.5,0c0.4,0.4,0.9,0.6,1.5,0.6c0.1,0,0.1,0,0.2,0l0.1,0c0.1,0,0.1,0,0.2-0.1L400.7,396.6z"
		/>
</g>
<g>
	<path class="st4" d="M432.7,370.2c3,2,7,1.3,9.1-1.5c1.3-1.7,1.7-4,1.1-6c0,0,0.1,0,0.1,0c0.1,0,0.2-0.1,0.2-0.1
		c0,0,0.1-0.1,0.1-0.1c0.1,0,0.1-0.1,0.2-0.1c0,0,0.1-0.1,0.1-0.1c0.1-0.1,0.1-0.1,0.2-0.2c0,0,0.1-0.1,0.1-0.1
		c0.1-0.1,0.2-0.2,0.3-0.3c1.2-1.6,0.9-3.8-0.7-5c0,0-0.1-0.1-0.1-0.1l0,0c0.3-1.8-0.6-3.9-2-5c-2.2-1.7-5.4-1.2-7.1,1l-5.8,7.7
		c0,0,0,0.1-0.1,0.1l0,0l0,0c0,0-0.1,0.1-0.1,0.1l-2.3,3.1c-1.6,2.1-1.1,5.1,0.9,6.6C428.5,371.5,431,371.5,432.7,370.2z
		 M426.5,364.1l2.3-3.1c0,0,0,0,0-0.1l0.1-0.1l0-0.1c0,0,0,0,0-0.1l5.8-7.7c1.4-1.9,4.1-2.3,6-0.8c1.3,1,2,2.9,1.7,4.4l0,0.2
		l0.2,0.1c0,0,0.1,0.1,0.1,0.1l0,0l0.1,0c0,0,0.1,0,0.1,0.1c1.2,0.9,1.5,2.6,0.5,3.9c-0.1,0.1-0.2,0.2-0.2,0.3c0,0,0,0-0.1,0.1
		c-0.1,0.1-0.2,0.1-0.2,0.2c0,0,0,0,0,0c-0.1,0.1-0.2,0.1-0.3,0.2c0,0-0.1,0-0.1,0c-0.1,0-0.2,0.1-0.3,0.1c-0.8,0.3-1.8,0.2-2.6-0.4
		c-0.2-0.1-0.4-0.1-0.6,0.1c-0.1,0.2-0.1,0.4,0.1,0.6c0.9,0.7,1.9,0.8,2.9,0.6c0.5,1.8,0.1,3.8-1,5.3c-1.8,2.4-5.3,3-7.9,1.4
		c0.3-0.3,0.6-0.8,0.9-1.3c0.1-0.2,0-0.4-0.2-0.5c-0.2-0.1-0.4,0-0.5,0.1c0,0,0,0,0,0.1c-0.4,0.8-1.1,1.4-1.1,1.5
		c-1.4,1.3-3.6,1.3-5.1,0.2C425.6,368.3,425.2,365.8,426.5,364.1z"/>
	<path class="st4" d="M437.5,350.4c1.3-0.2,2.7,0.1,3.9,1c1.5,1.1,2.4,3.2,2.1,5c0,0,0,0,0,0c1.6,1.2,2,3.6,0.7,5.2
		c-0.1,0.1-0.2,0.2-0.3,0.3c0,0,0,0-0.1,0.1c-0.1,0.1-0.2,0.2-0.2,0.2c0,0-0.1,0.1-0.1,0.1c-0.1,0.1-0.2,0.1-0.2,0.2
		c0,0-0.1,0.1-0.1,0.1c-0.1,0-0.1,0.1-0.2,0.1c0.6,2.1,0.1,4.3-1.2,6.1c-2.1,2.9-6.2,3.6-9.2,1.6c-1.7,1.3-4.2,1.3-6,0
		c-2.2-1.6-2.6-4.7-1-6.9l2.3-3.1c0,0,0.1-0.1,0.1-0.1l0,0c0,0,0-0.1,0.1-0.1l5.8-7.7C434.9,351.3,436.1,350.6,437.5,350.4z
		 M437.4,371c1.6-0.2,3.2-1.1,4.2-2.5c1.2-1.7,1.6-3.9,1.1-5.9l0-0.2l0.2-0.1c0.1,0,0.1-0.1,0.2-0.1c0,0,0.1,0,0.1-0.1
		c0.1,0,0.1-0.1,0.2-0.1c0,0,0.1-0.1,0.1-0.1c0.1-0.1,0.1-0.1,0.2-0.2l0.1-0.1c0.1-0.1,0.2-0.2,0.2-0.3c1.1-1.5,0.8-3.6-0.7-4.7
		c0,0-0.1,0-0.1-0.1l-0.1-0.1l0-0.1c0.3-1.8-0.5-3.7-2-4.8c-1-0.8-2.3-1.1-3.6-0.9c-1.3,0.2-2.4,0.9-3.2,1.9l-5.8,7.7
		c0,0,0,0.1-0.1,0.1l-0.1,0.1c0,0,0,0.1-0.1,0.1l-2.3,3.1c-0.7,1-1,2.2-0.9,3.4c0.2,1.2,0.8,2.3,1.8,3c1.6,1.2,4,1.2,5.6-0.1
		l0.1-0.1l0.1,0.1C434.2,370.9,435.8,371.2,437.4,371z M437.6,351.2c1.1-0.2,2.3,0.1,3.3,0.8c1.4,1,2.1,3,1.8,4.6l0,0.1l0.1,0.1
		c0,0,0.1,0.1,0.1,0.1l0.1,0.1c0,0,0.1,0,0.1,0.1c1.3,1,1.6,2.8,0.6,4.1c-0.1,0.1-0.2,0.2-0.3,0.3l-0.1,0.1
		c-0.1,0.1-0.2,0.2-0.3,0.2l0,0c-0.1,0.1-0.2,0.1-0.3,0.2l-0.1,0c-0.1,0.1-0.2,0.1-0.3,0.1c-0.9,0.3-2,0.2-2.8-0.4
		c-0.1-0.1-0.2,0-0.3,0c0,0,0,0.1,0,0.1c0,0.1,0,0.1,0.1,0.1c0.8,0.6,1.8,0.8,2.8,0.6l0.2,0l0.1,0.2c0.5,1.9,0.1,4-1,5.5
		c-1.9,2.5-5.4,3.1-8.1,1.4l-0.2-0.1l0.2-0.2c0.3-0.3,0.6-0.8,0.9-1.3c0.1-0.1,0-0.2-0.1-0.3c-0.1,0-0.2,0-0.2,0.1
		c-0.5,0.8-1.1,1.5-1.2,1.5c-1.5,1.3-3.7,1.4-5.3,0.2c-0.9-0.7-1.5-1.6-1.6-2.7c-0.2-1.1,0.1-2.2,0.8-3.1l2.3-3.1c0,0,0,0,0-0.1
		l0.1-0.1c0,0,0,0,0-0.1l5.8-7.7C435.4,351.9,436.5,351.3,437.6,351.2z M442.9,361.6l-0.1-0.2c0.1-0.1,0.2-0.1,0.2-0.2l0.1-0.1
		c0.1-0.1,0.2-0.2,0.2-0.3c0.8-1.1,0.6-2.7-0.5-3.6c0,0,0,0-0.1,0l-0.1-0.1c0,0-0.1-0.1-0.1-0.1l-0.3-0.2l0.1-0.4
		c0.3-1.5-0.4-3.3-1.6-4.2c-0.9-0.7-1.9-0.9-3-0.8c-1.1,0.2-2,0.7-2.7,1.6l-8.3,11c-0.6,0.8-0.9,1.8-0.7,2.8c0.1,1,0.7,1.9,1.5,2.5
		c1.4,1.1,3.5,1,4.8-0.2c0,0,0.7-0.7,1.1-1.4c0,0,0-0.1,0-0.1c0.2-0.2,0.5-0.3,0.8-0.2c0.1,0.1,0.2,0.2,0.3,0.3c0,0.2,0,0.3,0,0.4
		c-0.2,0.5-0.5,0.9-0.8,1.2c2.5,1.4,5.7,0.8,7.4-1.5c1-1.4,1.4-3.3,1-5c-1,0.2-2.1-0.1-2.9-0.7c-0.1-0.1-0.2-0.2-0.2-0.4
		s0-0.3,0.1-0.4c0.2-0.3,0.6-0.3,0.8-0.1c0.7,0.5,1.6,0.7,2.4,0.4c0.1,0,0.2-0.1,0.3-0.1l0.1,0c0.1-0.1,0.2-0.1,0.3-0.2L442.9,361.6
		z"/>
</g>
<g>
	<path class="st4" d="M45.9,278.4c-1.7,0.6-2.7,2.4-2.2,4.1c0.3,1,1.1,1.9,2.1,2.3c0,0,0,0,0,0c0,0,0,0.1,0,0.1c0,0,0,0,0,0.1
		c0,0,0,0.1,0,0.1c0,0,0,0,0,0.1c0,0,0,0.1,0,0.1c0,0,0,0,0,0.1c0,0.1,0,0.1,0,0.2c0.3,1,1.3,1.5,2.2,1.2c0,0,0,0,0.1,0l0,0
		c0.7,0.7,1.7,1,2.6,0.7c1.4-0.4,2.2-1.8,1.8-3.1l-1.3-4.7c0,0,0,0,0-0.1l0,0l0,0c0,0,0,0,0-0.1l-0.5-1.9c-0.4-1.3-1.7-2-2.9-1.7
		C46.6,276.3,45.9,277.3,45.9,278.4z M50.2,277.8l0.5,1.9c0,0,0,0,0,0l0,0.1l0,0c0,0,0,0,0,0l1.3,4.7c0.3,1.1-0.4,2.3-1.5,2.7
		c-0.8,0.2-1.8-0.1-2.3-0.7l-0.1-0.1l-0.1,0c0,0,0,0-0.1,0l0,0l0,0c0,0,0,0,0,0c-0.7,0.2-1.5-0.2-1.7-1c0-0.1,0-0.1,0-0.2
		c0,0,0,0,0,0c0-0.1,0-0.1,0-0.2c0,0,0,0,0,0c0-0.1,0-0.1,0-0.2c0,0,0,0,0,0c0-0.1,0-0.1,0-0.2c0.1-0.4,0.5-0.8,1-0.9
		c0.1,0,0.2-0.1,0.1-0.2s-0.1-0.2-0.2-0.1c-0.5,0.1-0.9,0.5-1.1,1c-0.9-0.3-1.6-1.1-1.8-2c-0.4-1.5,0.4-3,1.9-3.6
		c0,0.2,0.1,0.5,0.2,0.8c0,0.1,0.2,0.1,0.3,0.1c0.1,0,0.1-0.1,0.1-0.2c0,0,0,0,0,0c-0.2-0.4-0.2-0.9-0.3-0.9
		c-0.1-0.9,0.6-1.8,1.5-2.1C48.8,276.1,49.9,276.7,50.2,277.8z"/>
	<path class="st4" d="M52.3,286.4c-0.3,0.6-0.9,1.1-1.6,1.3c-0.9,0.3-2,0-2.7-0.7c0,0,0,0,0,0c-1,0.3-2-0.3-2.3-1.3
		c0-0.1,0-0.1,0-0.2c0,0,0,0,0,0c0-0.1,0-0.1,0-0.2c0,0,0,0,0-0.1c0-0.1,0-0.1,0-0.1c0,0,0-0.1,0-0.1c0,0,0-0.1,0-0.1
		c-1-0.4-1.8-1.3-2.1-2.3c-0.5-1.7,0.5-3.6,2.2-4.2c0-1.1,0.8-2.1,1.8-2.4c1.3-0.4,2.7,0.4,3.1,1.7l0.5,1.9c0,0,0,0,0,0.1l0,0
		c0,0,0,0,0,0.1l1.3,4.7C52.8,285.1,52.7,285.8,52.3,286.4z M44.1,280c-0.4,0.7-0.5,1.6-0.3,2.5c0.3,1,1,1.8,2,2.2l0.1,0l0,0.1
		c0,0,0,0.1,0,0.1c0,0,0,0,0,0.1c0,0,0,0.1,0,0.1c0,0,0,0,0,0.1c0,0,0,0.1,0,0.1l0,0.1c0,0.1,0,0.1,0,0.2c0.3,0.9,1.2,1.4,2.1,1.2
		c0,0,0,0,0.1,0l0.1,0l0,0c0.6,0.7,1.7,0.9,2.5,0.7c0.6-0.2,1.2-0.6,1.5-1.2c0.3-0.6,0.4-1.2,0.2-1.9l-1.3-4.7c0,0,0,0,0-0.1l0-0.1
		c0,0,0,0,0-0.1l-0.5-1.9c-0.2-0.6-0.5-1.1-1.1-1.4c-0.5-0.3-1.2-0.4-1.7-0.2c-1,0.3-1.7,1.2-1.7,2.3l0,0.1l-0.1,0
		C45.1,278.8,44.5,279.3,44.1,280z M52,286.2c-0.3,0.5-0.8,0.9-1.4,1.1c-0.8,0.2-1.8-0.1-2.4-0.7l0,0l-0.1,0c0,0,0,0-0.1,0l-0.1,0
		c0,0,0,0-0.1,0c-0.8,0.2-1.6-0.2-1.8-1c0-0.1,0-0.1,0-0.2l0,0c0-0.1,0-0.1,0-0.2l0,0c0-0.1,0-0.1,0-0.2l0,0c0-0.1,0-0.1,0-0.2
		c0.2-0.5,0.5-0.9,1-1c0.1,0,0.1-0.1,0.1-0.1c0,0,0,0,0-0.1s0,0-0.1,0c-0.5,0.1-0.9,0.5-1.1,0.9l0,0.1l-0.1,0
		c-0.9-0.4-1.6-1.2-1.9-2.1c-0.4-1.5,0.4-3.1,1.9-3.7l0.1,0l0,0.1c0,0.2,0.1,0.5,0.2,0.8c0,0.1,0.1,0.1,0.1,0c0,0,0.1-0.1,0.1-0.1
		c-0.2-0.4-0.3-0.9-0.3-0.9c-0.1-1,0.6-1.9,1.5-2.2c0.5-0.2,1.1-0.1,1.6,0.2c0.5,0.3,0.8,0.7,1,1.3l0.5,1.9c0,0,0,0,0,0l0,0.1
		c0,0,0,0,0,0l1.3,4.7C52.4,285.1,52.3,285.7,52,286.2z M46.1,285.1L46.1,285.1c0.1,0.1,0.1,0.1,0.1,0.1l0,0c0,0.1,0,0.1,0,0.2
		c0.2,0.7,0.9,1.1,1.6,0.9c0,0,0,0,0,0l0.1,0c0,0,0,0,0.1,0l0.2-0.1l0.1,0.1c0.5,0.6,1.4,0.9,2.2,0.7c0.5-0.1,1-0.5,1.2-1
		c0.3-0.5,0.3-1,0.2-1.6l-1.9-6.7c-0.1-0.5-0.5-0.9-0.9-1.1c-0.4-0.2-1-0.3-1.4-0.2c-0.9,0.2-1.5,1.1-1.4,2c0,0,0.1,0.5,0.2,0.9
		c0,0,0,0,0,0c0,0.1,0,0.3-0.2,0.4c-0.1,0-0.2,0-0.2,0c-0.1,0-0.1-0.1-0.2-0.2c-0.1-0.2-0.2-0.5-0.2-0.7c-1.3,0.6-2.1,2-1.7,3.4
		c0.2,0.8,0.9,1.6,1.7,1.9c0.2-0.5,0.7-0.8,1.2-0.9c0.1,0,0.2,0,0.2,0c0.1,0,0.1,0.1,0.1,0.2c0,0.2-0.1,0.3-0.2,0.4
		c-0.4,0.1-0.8,0.4-0.9,0.9c0,0,0,0.1,0,0.1l0,0C46.2,285,46.2,285.1,46.1,285.1L46.1,285.1z"/>
</g>
<g>
	<g>
		<g>
			<path class="st4" d="M113.2,63c1.2,1.2,3.3,1.2,4.5,0h0c0,0,0,0,0,0c1.2-1.2,1.2-3.3,0-4.5l0,0c-1.3-1.2-3.3-1.2-4.5,0
				C111.9,59.7,111.9,61.7,113.2,63C113.2,63,113.2,63,113.2,63z M114,59.3c0.8-0.8,2-0.8,2.8,0l0,0c0.4,0.4,0.6,0.9,0.6,1.4
				c0,1.1-0.9,2-2,2l0,0c-0.5,0-1-0.2-1.4-0.6C113.3,61.3,113.3,60.1,114,59.3z"/>
			<path class="st4" d="M106.1,72.3c0.2,0.3,0.6,0.4,0.8,0.2s0.4-0.6,0.2-0.8c-2.1-3.4-6.4-4.9-10.1-3.4c-0.3,0.1-0.5,0.5-0.3,0.8
				c0.1,0.3,0.5,0.5,0.8,0.3l0,0C100.7,68.1,104.3,69.3,106.1,72.3z"/>
			<path class="st4" d="M100.1,91c-0.9,0.9-0.9,2.3,0,3.2c0.9,0.9,2.3,0.9,3.2,0v0c0.9-0.9,0.9-2.3,0-3.2
				C102.4,90.2,101,90.2,100.1,91z M102.4,93.3c-0.2,0.2-0.4,0.3-0.7,0.3l0,0c-0.3,0-0.5-0.1-0.7-0.3c-0.4-0.4-0.4-1,0-1.4
				c0.4-0.4,1-0.4,1.4,0C102.8,92.3,102.8,92.9,102.4,93.3z"/>
			<path class="st4" d="M118.8,68.7c-0.4-1-1.7-1.5-3.7-1.5c-2.3,0-4.7,0.4-7,0.9c-0.8-0.8-1.7-1.6-2.8-2.1c0,0-0.1,0-0.1,0
				c-0.3-0.1-0.7,0-0.8,0.3c-0.1,0.3,0,0.7,0.3,0.8l0,0c1.7,0.9,3,2.2,4,3.9c0,0.1,0,0.1,0.1,0.1c0.2,0.4,0.4,0.8,0.5,1.2
				c0.1,0.2,0.2,0.4,0.2,0.7l0.1,0.2c-3,1.5-6,2.9-9.2,4.1c-3.1,1.2-6.3,2.3-9.6,3.1l-0.1-0.2c-0.1-0.2-0.2-0.4-0.3-0.6
				C90.2,78.5,90,77.3,90,76c0,0,0-0.1,0-0.1c0-0.6,0.1-1.2,0.2-1.8c1-5.5,6.3-9.1,11.8-8.1c0.3,0.1,0.6-0.2,0.7-0.5
				s-0.2-0.6-0.5-0.7c-0.6-0.1-1.1-0.2-1.7-0.2c-6.2-0.2-11.4,4.7-11.6,11c-2.1,1.1-4,2.4-5.7,3.9c-1.5,1.4-2.1,2.6-1.7,3.6
				c0.6,1.4,3.2,1.8,7.1,1.3c1.1-0.2,2.2-0.4,3.5-0.7c2,2.1,4.8,3.4,7.8,3.5c6.2,0.2,11.4-4.7,11.6-11c1.1-0.6,2.1-1.3,3-1.9
				C117.6,72.3,119.4,70.2,118.8,68.7z M89.5,80c0.1,0.2,0.2,0.5,0.3,0.7c-2.1,0.5-3.4,0.7-3.4,0.5c0,0,0.2-0.1,0.6-0.5
				c0.7-0.5,1.5-1,2.3-1.5C89.3,79.5,89.4,79.8,89.5,80z M107.5,82.8c-3.7,4.1-10.1,4.4-14.2,0.7h0c2.9-0.8,5.8-1.7,8.6-2.8
				c2.8-1.1,5.5-2.3,8.2-3.7C109.9,79.1,109,81.2,107.5,82.8z M113.7,73.4c-2.9,2-7.3,4.2-12.3,6.1c-3.1,1.2-6.2,2.2-9.4,3h-0.1
				c-1.3,0.3-2.6,0.6-3.7,0.7c-3.3,0.5-5.5,0.3-5.8-0.5c-0.2-0.5,0.3-1.3,1.4-2.3c1.5-1.3,3.2-2.5,4.9-3.5c0,0.4,0.1,0.7,0.1,1.1
				c-0.9,0.5-1.9,1.1-2.7,1.7c-0.9,0.7-1.2,1.3-1,1.9c0.3,0.9,2.4,0.8,5.4,0.1c3.5-0.9,7-2,10.4-3.3c3.4-1.3,6.7-2.8,9.9-4.5
				c2.7-1.5,4.3-2.9,3.9-3.7c-0.2-0.5-0.9-0.8-2-0.7c-1.1,0.1-2.1,0.3-3.1,0.5c-0.2-0.3-0.4-0.6-0.6-0.9c2-0.5,4-0.7,6.1-0.7
				c1.5,0,2.4,0.3,2.5,0.7C118,70,116.5,71.6,113.7,73.4z M110.3,71.2L110.3,71.2c0.9-0.2,1.7-0.3,2.6-0.4c0.6,0,0.8-0.1,0.8-0.1
				c0.1,0.2-1,0.9-2.9,1.9c-0.1-0.2-0.2-0.5-0.3-0.7C110.5,71.7,110.4,71.4,110.3,71.2z"/>
			<path class="st4" d="M85.4,65.5c1,0.9,2.5,0.9,3.4,0c0,0,0,0,0,0c0.9-0.9,0.9-2.5,0-3.4c0,0,0,0,0,0c-0.9-0.9-2.5-0.9-3.4,0
				c0,0,0,0,0,0C84.4,63,84.4,64.5,85.4,65.5L85.4,65.5z M86.2,62.8c0.5-0.5,1.2-0.5,1.7,0c0.2,0.2,0.4,0.5,0.4,0.9
				c0,0.7-0.5,1.2-1.2,1.2c-0.3,0-0.6-0.1-0.8-0.3l0,0C85.7,64.1,85.7,63.3,86.2,62.8z"/>
		</g>
	</g>
</g>
<g>
	<g>
		<path class="st3" d="M53.4,246.1c0-0.3-0.2-0.5-0.4-0.5l-4.6-0.2c-0.2,0-0.4,0.2-0.4,0.5l-0.1,2.8c0,0.3,0.2,0.5,0.4,0.5l4.6,0.2
			c0.2,0,0.4-0.2,0.4-0.5L53.4,246.1z M48.8,248.1l0.1-1.8l3.7,0.2l-0.1,1.8L48.8,248.1z"/>
		<path class="st3" d="M52.9,249.5C52.9,249.5,52.9,249.5,52.9,249.5l-4.6-0.2c-0.3,0-0.5-0.3-0.5-0.7l0.1-2.8
			c0-0.2,0.1-0.3,0.2-0.5c0.1-0.1,0.2-0.2,0.4-0.2l4.6,0.2c0.1,0,0.3,0.1,0.4,0.2c0.1,0.1,0.2,0.3,0.1,0.5l-0.1,2.8
			C53.4,249.3,53.2,249.5,52.9,249.5z M48.4,245.5c-0.1,0-0.1,0-0.2,0.1c-0.1,0.1-0.1,0.2-0.1,0.3l-0.1,2.8c0,0.2,0.1,0.4,0.3,0.4
			l4.6,0.2c0.2,0,0.3-0.2,0.3-0.4l0.1-2.8c0-0.1,0-0.2-0.1-0.3s-0.1-0.1-0.2-0.1L48.4,245.5C48.4,245.5,48.4,245.5,48.4,245.5z
			 M52.6,248.5l-4-0.2l0.1-2.1l4,0.2L52.6,248.5z M48.9,248l3.5,0.2l0-1.5l-3.5-0.2L48.9,248z"/>
	</g>
	<g>
		<path class="st3" d="M53.5,243.5l0.1-2.8c0-0.3-0.2-0.5-0.4-0.5l-4.6-0.2c-0.2,0-0.4,0.2-0.4,0.5l-0.1,2.8c0,0.3,0.2,0.5,0.4,0.5
			L53,244C53.3,244,53.5,243.8,53.5,243.5z M48.9,242.8L49,241l3.7,0.2l-0.1,1.8L48.9,242.8z"/>
		<path class="st3" d="M53.1,244.2C53.1,244.2,53,244.2,53.1,244.2l-4.6-0.2c-0.3,0-0.5-0.3-0.5-0.7l0.1-2.8c0-0.2,0.1-0.3,0.2-0.5
			c0.1-0.1,0.3-0.2,0.4-0.2l4.6,0.2c0.3,0,0.5,0.3,0.5,0.7l-0.1,2.8c0,0.2-0.1,0.3-0.2,0.5C53.3,244.1,53.2,244.2,53.1,244.2z
			 M48.6,240.1c-0.1,0-0.1,0-0.2,0.1c-0.1,0.1-0.1,0.2-0.1,0.3l-0.1,2.8c0,0.2,0.1,0.4,0.3,0.4l4.6,0.2c0.1,0,0.2,0,0.2-0.1
			c0.1-0.1,0.1-0.2,0.1-0.3l0.1-2.8c0-0.2-0.1-0.4-0.3-0.4L48.6,240.1C48.6,240.1,48.6,240.1,48.6,240.1z M52.8,243.1l-4-0.2
			l0.1-2.1l4,0.2L52.8,243.1z M49.1,242.6l3.5,0.2l0-1.5l-3.5-0.2L49.1,242.6z"/>
	</g>
	<g>
		<path class="st3" d="M59.7,253.6c0-0.3-0.2-0.5-0.4-0.5l-4.6-0.2c-0.2,0-0.4,0.2-0.4,0.5l-0.1,2.8c0,0.3,0.2,0.5,0.4,0.5l4.6,0.2
			c0.2,0,0.4-0.2,0.4-0.5L59.7,253.6z M55.1,255.7l0.1-1.8l3.7,0.2l-0.1,1.8L55.1,255.7z"/>
		<path class="st3" d="M59.2,257.1C59.2,257.1,59.2,257.1,59.2,257.1l-4.6-0.2c-0.1,0-0.3-0.1-0.4-0.2c-0.1-0.1-0.2-0.3-0.1-0.5
			l0.1-2.8c0-0.4,0.3-0.7,0.5-0.7c0,0,0,0,0,0l4.6,0.2c0.1,0,0.3,0.1,0.4,0.2c0.1,0.1,0.2,0.3,0.1,0.5l-0.1,2.8
			C59.8,256.8,59.5,257.1,59.2,257.1z M54.8,253c-0.2,0-0.3,0.2-0.3,0.4l-0.1,2.8c0,0.1,0,0.2,0.1,0.3c0.1,0.1,0.1,0.1,0.2,0.1
			l4.6,0.2c0.2,0,0.3-0.2,0.3-0.4l0.1-2.8c0-0.1,0-0.2-0.1-0.3s-0.1-0.1-0.2-0.1L54.8,253C54.8,253,54.8,253,54.8,253z M58.9,256
			l-4-0.2l0.1-2.1l4,0.2L58.9,256z M55.2,255.6l3.5,0.2l0-1.5l-3.5-0.2L55.2,255.6z"/>
	</g>
	<g>
		<path class="st3" d="M60.4,231.2l0.1-2.8c0-0.3-0.2-0.5-0.4-0.5l-4.6-0.2c-0.2,0-0.4,0.2-0.4,0.5l-0.1,2.8c0,0.3,0.2,0.5,0.4,0.5
			l4.6,0.2C60.2,231.7,60.4,231.5,60.4,231.2z M55.9,230.5l0.1-1.8l3.7,0.2l-0.1,1.8L55.9,230.5z"/>
		<path class="st3" d="M60,231.9C60,231.9,60,231.9,60,231.9l-4.6-0.2c-0.1,0-0.3-0.1-0.4-0.2c-0.1-0.1-0.2-0.3-0.1-0.5l0.1-2.8
			c0-0.4,0.3-0.7,0.5-0.7c0,0,0,0,0,0l4.6,0.2c0.1,0,0.3,0.1,0.4,0.2c0.1,0.1,0.2,0.3,0.1,0.5l-0.1,2.8
			C60.6,231.6,60.3,231.9,60,231.9z M55.6,227.8c-0.2,0-0.3,0.2-0.3,0.4l-0.1,2.8c0,0.1,0,0.2,0.1,0.3s0.1,0.1,0.2,0.1l4.6,0.2
			c0.2,0,0.3-0.2,0.3-0.4l0.1-2.8c0-0.1,0-0.2-0.1-0.3s-0.1-0.1-0.2-0.1L55.6,227.8C55.6,227.8,55.6,227.8,55.6,227.8z M59.7,230.8
			l-4-0.2l0.1-2.1l4,0.2L59.7,230.8z M56,230.3l3.5,0.2l0-1.5l-3.5-0.2L56,230.3z"/>
	</g>
	<g>
		<path class="st3" d="M53.7,238.1l0.1-2.8c0-0.3-0.2-0.5-0.4-0.5l-4.6-0.2c-0.2,0-0.4,0.2-0.4,0.5l-0.1,2.8c0,0.3,0.2,0.5,0.4,0.5
			l4.6,0.2C53.4,238.6,53.6,238.4,53.7,238.1z M49.1,237.4l0.1-1.8l3.7,0.2l-0.1,1.8L49.1,237.4z"/>
		<path class="st3" d="M53.2,238.8C53.2,238.8,53.2,238.8,53.2,238.8l-4.6-0.2c-0.3,0-0.5-0.3-0.5-0.7l0.1-2.8
			c0-0.2,0.1-0.3,0.2-0.5c0.1-0.1,0.3-0.2,0.4-0.2l4.6,0.2c0.1,0,0.3,0.1,0.4,0.2c0.1,0.1,0.2,0.3,0.1,0.5l-0.1,2.8
			c0,0.2-0.1,0.3-0.2,0.5C53.5,238.7,53.4,238.8,53.2,238.8z M48.8,234.7c-0.1,0-0.1,0-0.2,0.1c-0.1,0.1-0.1,0.2-0.1,0.3l-0.1,2.8
			c0,0.2,0.1,0.4,0.3,0.4l4.6,0.2c0.1,0,0.2,0,0.2-0.1c0.1-0.1,0.1-0.2,0.1-0.3l0.1-2.8c0-0.1,0-0.2-0.1-0.3
			c-0.1-0.1-0.1-0.1-0.2-0.1L48.8,234.7C48.8,234.7,48.8,234.7,48.8,234.7z M52.9,237.7l-4-0.2l0.1-2.1l4,0.2L52.9,237.7z
			 M49.2,237.2l3.5,0.2l0-1.5l-3.5-0.2L49.2,237.2z"/>
	</g>
	<g>
		<path class="st3" d="M42.5,242.1c0.2,0,0.4-0.2,0.4-0.5s-0.2-0.5-0.4-0.5l-0.9,0l0-1.1c0-0.3-0.2-0.5-0.4-0.5s-0.4,0.2-0.4,0.5
			l0,1.1l-0.9,0c-0.2,0-0.4,0.2-0.4,0.5c0,0.3,0.2,0.5,0.4,0.5l0.9,0l0,1.1c0,0.3,0.2,0.5,0.4,0.5c0.2,0,0.4-0.2,0.4-0.5l0-1.1
			L42.5,242.1z"/>
		<path class="st3" d="M41.2,243.8C41.2,243.8,41.2,243.8,41.2,243.8c-0.2,0-0.3-0.1-0.4-0.2c-0.1-0.1-0.2-0.3-0.1-0.5l0-0.9l-0.8,0
			c-0.1,0-0.3-0.1-0.4-0.2c-0.1-0.1-0.2-0.3-0.1-0.5c0-0.4,0.3-0.7,0.5-0.7c0,0,0,0,0,0l0.8,0l0-0.9c0-0.4,0.3-0.7,0.5-0.7
			c0,0,0,0,0,0c0.3,0,0.5,0.3,0.5,0.7l0,0.9l0.8,0c0.1,0,0.3,0.1,0.4,0.2c0.1,0.1,0.2,0.3,0.1,0.5c0,0.2-0.1,0.3-0.2,0.5
			c-0.1,0.1-0.2,0.2-0.4,0.2l-0.8,0l0,0.9C41.7,243.5,41.5,243.8,41.2,243.8z M39.9,241.1c-0.1,0-0.1,0-0.2,0.1
			c-0.1,0.1-0.1,0.2-0.1,0.3c0,0.1,0,0.2,0.1,0.3c0.1,0.1,0.1,0.1,0.2,0.1l1,0l0,1.2c0,0.1,0,0.2,0.1,0.3s0.1,0.1,0.2,0.1
			c0,0,0,0,0,0c0.2,0,0.3-0.2,0.3-0.4l0-1.2l1,0c0.1,0,0.2,0,0.2-0.1c0.1-0.1,0.1-0.2,0.1-0.3c0-0.1,0-0.2-0.1-0.3s-0.1-0.1-0.2-0.1
			l-1,0l0-1.2c0-0.2-0.1-0.4-0.3-0.4c0,0,0,0,0,0c-0.2,0-0.3,0.2-0.3,0.4l0,1.2L39.9,241.1C39.9,241.1,39.9,241.1,39.9,241.1z"/>
	</g>
	<g>
		<path class="st3" d="M50.9,224.7c0-0.3-0.2-0.5-0.4-0.5l-1.5-0.1c-0.2,0-0.4,0.2-0.4,0.5l-0.1,3.2c0,0.3,0.2,0.5,0.4,0.5
			s0.4-0.2,0.4-0.5l0.1-2.6l0.7,0c0,0.9-0.2,7.2-0.2,7.5l-0.7,0l0.1-2.3c0-0.3-0.2-0.5-0.4-0.5s-0.4,0.2-0.4,0.5l-0.1,2.3l-2-0.1
			l0-0.8c0-0.3-0.2-0.5-0.4-0.5l-1.5-0.1c-0.2,0-0.4,0.2-0.4,0.5l-0.1,4.7l-5.2-0.2c-0.2,0-0.4,0.2-0.4,0.5l-0.3,9.7
			c0,0.3,0.2,0.5,0.4,0.5l5.2,0.2l-0.1,4.7c0,0.3,0.2,0.5,0.4,0.5l1.5,0.1c0.2,0,0.4-0.2,0.4-0.5l0-0.8l2,0.1l-0.3,8.1
			c0,0.3,0.2,0.5,0.4,0.5l1.5,0.1c0.2,0,0.4-0.2,0.4-0.5l0-0.2l2.8,0.1c0.2,0,0.4-0.2,0.4-0.5c0-0.3-0.2-0.5-0.4-0.5l-2.8-0.1
			l0.2-6.8l14.1,0.7l-0.2,6.8l-9.2-0.4c-0.2,0-0.4,0.2-0.4,0.5c0,0.3,0.2,0.5,0.4,0.5l9.2,0.4l0,0.2c0,0.3,0.2,0.5,0.4,0.5l1.6,0.1
			c0.2,0,0.4-0.2,0.4-0.5l1.1-34.6c0-0.3-0.2-0.5-0.4-0.5l-1.6-0.1c-0.2,0-0.4,0.2-0.4,0.5l0,0.2l-14.1-0.7L50.9,224.7z M44.1,251.2
			l0.3-8.1c0-0.3-0.2-0.5-0.4-0.5c-0.2,0-0.4,0.2-0.4,0.5l-0.1,2.9l-4.8-0.2l0.3-8.7l4.8,0.2l-0.1,2.8c0,0.3,0.2,0.5,0.4,0.5
			c0.2,0,0.4-0.2,0.4-0.5l0.2-8l0.7,0l-0.6,19L44.1,251.2z M48.3,258.6l0.2-7.5l0.7,0l-0.2,7.5L48.3,258.6z M45.7,249.9l0.5-16.4
			l18.5,0.9l-0.1,3l-6.7-0.3c-0.2,0-0.4,0.2-0.4,0.5l-0.3,9.3c0,0.3,0.2,0.5,0.4,0.5l6.7,0.3l-0.1,3L45.7,249.9z M64.3,246.8
			l-6.3-0.3l0.1-3.6l6.3,0.3L64.3,246.8z M58.2,241.8l0.1-3.6l6.3,0.3l-0.1,3.6L58.2,241.8z M66.6,225.9l-1.1,33.5l-0.8,0l1.1-33.5
			L66.6,225.9z M65,226.6l-0.2,6.8l-14.1-0.7l0.2-6.8L65,226.6L65,226.6z"/>
		<path class="st3" d="M65.9,260.7C65.9,260.7,65.9,260.7,65.9,260.7l-1.6-0.1c-0.3,0-0.5-0.3-0.5-0.7l0-0.1l-9.1-0.4
			c-0.1,0-0.3-0.1-0.4-0.2s-0.2-0.3-0.1-0.5c0-0.2,0.1-0.3,0.2-0.5c0.1-0.1,0.3-0.2,0.4-0.2l9.1,0.4L64,252l-13.9-0.7l-0.2,6.5
			l2.7,0.1c0.1,0,0.3,0.1,0.4,0.2c0.1,0.1,0.2,0.3,0.1,0.5c0,0.2-0.1,0.3-0.2,0.5c-0.1,0.1-0.2,0.2-0.4,0.2l-2.7-0.1l0,0.1
			c0,0.2-0.1,0.3-0.2,0.5c-0.1,0.1-0.2,0.2-0.4,0.2l-1.5-0.1c-0.1,0-0.3-0.1-0.4-0.2s-0.2-0.3-0.1-0.5l0.2-7.9l-1.7-0.1l0,0.6
			c0,0.4-0.3,0.7-0.6,0.6l-1.5-0.1c-0.3,0-0.5-0.3-0.5-0.7l0.1-4.5l-5.1-0.2c-0.1,0-0.3-0.1-0.4-0.2c-0.1-0.1-0.2-0.3-0.1-0.5
			l0.3-9.7c0-0.2,0.1-0.3,0.2-0.5c0.1-0.1,0.2-0.2,0.4-0.2l5.1,0.2l0.1-4.5c0-0.2,0.1-0.3,0.2-0.5c0.1-0.1,0.2-0.2,0.4-0.2l1.5,0.1
			c0.1,0,0.3,0.1,0.4,0.2c0.1,0.1,0.2,0.3,0.1,0.5l0,0.6l1.7,0.1l0.1-2.1c0-0.2,0.1-0.3,0.2-0.5c0.1-0.1,0.3-0.2,0.4-0.2
			c0.3,0,0.5,0.3,0.5,0.7l-0.1,2.1l0.4,0c0-0.6,0.1-2.8,0.1-4.6l0.1-2.6l-0.4,0l-0.1,2.5c0,0.2-0.1,0.3-0.2,0.5
			c-0.1,0.1-0.3,0.2-0.4,0.2c-0.1,0-0.3-0.1-0.4-0.2c-0.1-0.1-0.2-0.3-0.1-0.5l0.1-3.2c0-0.2,0.1-0.3,0.2-0.5
			c0.1-0.1,0.2-0.2,0.4-0.2l1.5,0.1c0.1,0,0.3,0.1,0.4,0.2c0.1,0.1,0.2,0.3,0.1,0.5l0,0.1l13.9,0.7l0-0.1c0-0.2,0.1-0.3,0.2-0.5
			c0.1-0.1,0.2-0.2,0.4-0.2l1.6,0.1c0.3,0,0.5,0.3,0.5,0.7L66.5,260C66.5,260.4,66.2,260.7,65.9,260.7z M54.7,258.3
			c-0.1,0-0.1,0-0.2,0.1c-0.1,0.1-0.1,0.2-0.1,0.3c0,0.1,0,0.2,0.1,0.3c0.1,0.1,0.1,0.1,0.2,0.1l9.4,0.4l0,0.4
			c0,0.2,0.1,0.4,0.3,0.4l1.6,0.1c0.2,0,0.3-0.2,0.3-0.4l1.1-34.6c0-0.2-0.1-0.4-0.3-0.4l-1.6-0.1c-0.1,0-0.2,0-0.2,0.1
			c-0.1,0.1-0.1,0.2-0.1,0.3l0,0.4L50.7,225l0-0.4c0-0.2-0.1-0.4-0.3-0.4l-1.5-0.1c-0.1,0-0.2,0-0.2,0.1c-0.1,0.1-0.1,0.2-0.1,0.3
			l-0.1,3.2c0,0.1,0,0.2,0.1,0.3c0.1,0.1,0.1,0.1,0.2,0.1c0.1,0,0.2,0,0.2-0.1c0.1-0.1,0.1-0.2,0.1-0.3l0.1-2.8l0.9,0l-0.1,2.9
			c-0.1,2.1-0.1,4.5-0.1,4.8l0,0.2l-0.9,0l0.1-2.4c0-0.1,0-0.2-0.1-0.3s-0.1-0.1-0.2-0.1c-0.1,0-0.2,0-0.2,0.1
			c-0.1,0.1-0.1,0.2-0.1,0.3l-0.1,2.4l-2.2-0.1l0-1c0-0.1,0-0.2-0.1-0.3s-0.1-0.1-0.2-0.1l-1.5-0.1c-0.1,0-0.2,0-0.2,0.1
			c-0.1,0.1-0.1,0.2-0.1,0.3l-0.2,4.8l-5.3-0.3c0,0,0,0,0,0c-0.2,0-0.3,0.2-0.3,0.4l-0.3,9.7c0,0.1,0,0.2,0.1,0.3
			c0.1,0.1,0.1,0.1,0.2,0.1l5.3,0.3l-0.2,4.8c0,0.2,0.1,0.4,0.3,0.4l1.5,0.1c0,0,0,0,0,0c0.2,0,0.3-0.2,0.3-0.4l0-1l2.2,0.1
			l-0.3,8.2c0,0.1,0,0.2,0.1,0.3c0.1,0.1,0.1,0.1,0.2,0.1l1.5,0.1c0.1,0,0.2,0,0.2-0.1c0.1-0.1,0.1-0.2,0.1-0.3l0-0.4l2.9,0.1
			c0.1,0,0.2,0,0.2-0.1c0.1-0.1,0.1-0.2,0.1-0.3c0-0.1,0-0.2-0.1-0.3c-0.1-0.1-0.1-0.1-0.2-0.1l-2.9-0.1l0.2-7.1l14.4,0.7l-0.2,7.1
			L54.7,258.3C54.7,258.3,54.7,258.3,54.7,258.3z M65.7,259.6l-1,0l1.1-33.8l1,0L65.7,259.6z M64.9,259.3l0.5,0l1-33.2l-0.5,0
			L64.9,259.3z M49.1,258.8l-0.9,0l0.2-7.8l0.9,0L49.1,258.8z M48.4,258.5l0.4,0l0.2-7.2l-0.4,0L48.4,258.5z M44.9,251.4l-0.9,0
			l0.3-8.3c0-0.2-0.1-0.4-0.3-0.4c-0.1,0-0.2,0-0.2,0.1c-0.1,0.1-0.1,0.2-0.1,0.3l-0.1,3.1l-5-0.2l0.3-9l5,0.2l-0.1,2.9
			c0,0.1,0,0.2,0.1,0.3c0.1,0.1,0.1,0.1,0.2,0.1c0.1,0,0.2,0,0.2-0.1c0.1-0.1,0.1-0.2,0.1-0.3l0.3-8.1l0.9,0L44.9,251.4z M44.3,251
			l0.4,0l0.6-18.7l-0.4,0l-0.2,7.8c0,0.2-0.1,0.3-0.2,0.5c-0.1,0.1-0.2,0.2-0.4,0.2c-0.1,0-0.3-0.1-0.4-0.2
			c-0.1-0.1-0.2-0.3-0.1-0.5l0.1-2.6l-4.5-0.2l-0.3,8.4l4.5,0.2l0.1-2.8c0-0.2,0.1-0.3,0.2-0.5c0.1-0.1,0.3-0.2,0.4-0.2
			c0.1,0,0.3,0.1,0.4,0.2c0.1,0.1,0.2,0.3,0.1,0.5L44.3,251z M64.3,251l-18.7-0.9l0.5-16.7l18.7,0.9l-0.1,3.3l-6.8-0.3
			c-0.2,0-0.3,0.2-0.3,0.4l-0.3,9.3c0,0.1,0,0.2,0.1,0.3c0.1,0.1,0.1,0.1,0.2,0.1l6.8,0.3L64.3,251z M45.8,249.8l18.2,0.9l0.1-2.7
			l-6.6-0.3c-0.1,0-0.3-0.1-0.4-0.2c-0.1-0.1-0.2-0.3-0.1-0.5l0.3-9.3c0-0.4,0.3-0.7,0.5-0.7c0,0,0,0,0,0l6.6,0.3l0.1-2.7l-18.2-0.9
			L45.8,249.8z M64.4,246.9l-6.5-0.3l0.1-3.9l6.5,0.3L64.4,246.9z M58.2,246.3l6,0.3l0.1-3.3l-6-0.3L58.2,246.3z M64.6,242.3
			l-6.5-0.3l0.1-3.9l6.5,0.3L64.6,242.3z M58.3,241.6l6,0.3l0.1-3.3l-6-0.3L58.3,241.6z M64.9,233.5l-14.4-0.7l0.2-7.1l14.4,0.7
			L64.9,233.5z M50.7,232.6l13.9,0.7l0.2-6.5l-13.9-0.7L50.7,232.6z"/>
	</g>
</g>
<path class="st3" d="M261.5,448.6h-2.9c-0.4,0-0.7,0.3-0.7,0.7v2.7c0,0.4,0.3,0.7,0.7,0.7h2.9c0.4,0,0.7-0.3,0.7-0.7v-2.7
	C262.2,448.9,261.9,448.6,261.5,448.6z M260.8,451.3h-1.5V450h1.5V451.3z"/>
<path class="st3" d="M261.5,443.1h-2.9c-0.4,0-0.7,0.3-0.7,0.7v2.7c0,0.4,0.3,0.7,0.7,0.7h2.9c0.4,0,0.7-0.3,0.7-0.7v-2.7
	C262.2,443.4,261.9,443.1,261.5,443.1z M260.8,445.8h-1.5v-1.3h1.5V445.8z"/>
<path class="st3" d="M251.1,455.1h-3c-0.4,0-0.7,0.3-0.7,0.7v2.9c0,0.4,0.3,0.7,0.7,0.7h3c0.4,0,0.7-0.3,0.7-0.7v-2.9
	C251.8,455.4,251.5,455.1,251.1,455.1z M250.4,458h-1.6v-1.5h1.6V458z"/>
<path class="st3" d="M244.9,455.1h-3c-0.4,0-0.7,0.3-0.7,0.7v2.9c0,0.4,0.3,0.7,0.7,0.7h3c0.4,0,0.7-0.3,0.7-0.7v-2.9
	C245.6,455.4,245.3,455.1,244.9,455.1z M244.2,458h-1.6v-1.5h1.6V458z"/>
<path class="st3" d="M248,453.3h3c0.4,0,0.7-0.3,0.7-0.7v-2.9c0-0.4-0.3-0.7-0.7-0.7h-3c-0.4,0-0.7,0.3-0.7,0.7v2.9
	C247.3,453,247.6,453.3,248,453.3z M248.7,450.4h1.6v1.5h-1.6V450.4z"/>
<path class="st3" d="M241.8,453.3h3c0.4,0,0.7-0.3,0.7-0.7v-2.9c0-0.4-0.3-0.7-0.7-0.7h-3c-0.4,0-0.7,0.3-0.7,0.7v2.9
	C241.1,453,241.4,453.3,241.8,453.3z M242.5,450.4h1.6v1.5h-1.6V450.4z"/>
<path class="st3" d="M230.8,446.9c0.5,1.7,1.3,3.4,2.3,4.6c0.6,0.8,1.4,1.6,2.3,1.6c0,0,0,0,0,0c0.8,0,1.5-0.6,2.1-1.3v10.9l-0.2,0
	c-1.1,0-2,0.9-2,2c0,1.1,0.9,2,2,2h18.5c1.1,0,2-0.9,2-2c0-1.1-0.9-2-2-2h-0.2v-3.1h9.5c1.2,0,2.1-0.9,2.1-2.1c0-1-0.7-1.8-1.5-2
	v-19.4h0.3c0.4,0,0.7-0.3,0.7-0.7c0-0.4-0.3-0.7-0.7-0.7h-31.3c-0.4,0-0.7,0.3-0.7,0.7c0,0.4,0.3,0.7,0.7,0.7v3.4
	c-2.3,0.2-3.3,1.3-3.8,2.3C230.1,443.4,230.4,445.5,230.8,446.9z M265.1,458.3h-9.5v-1.4h9.5c0.4,0,0.7,0.3,0.7,0.7
	C265.8,458,265.5,458.3,265.1,458.3z M255.6,436.1h8.7v19.3h-8.7V436.1z M247.5,436.1h2.5v7.4h-2.5V436.1z M243.6,436.1h2.5v7.4
	h-2.5V436.1z M238.9,436.1h3.3v8.1c0,0.4,0.3,0.7,0.7,0.7h7.8c0.4,0,0.7-0.3,0.7-0.7v-8.1h2.8v26.7h-4.8c-0.4,0-0.7,0.3-0.7,0.7
	c0,0.4,0.3,0.7,0.7,0.7h6.4c0.3,0,0.6,0.3,0.6,0.6c0,0.4-0.3,0.6-0.6,0.6h-18.5c-0.4,0-0.6-0.3-0.6-0.6c0-0.3,0.3-0.6,0.6-0.6l6.4,0
	c0,0,0,0,0,0c0.4,0,0.7-0.3,0.7-0.7c0-0.4-0.3-0.7-0.7-0.7l-4.8,0v-13c0.8-1.6,1.4-3.4,1.5-4.9c0.1-1.9-0.4-3.4-1.5-4.3V436.1z
	 M236.1,436.1h1.5v3.8c-0.4-0.2-0.8-0.4-1.5-0.4V436.1z M232.1,442.4c0.4-0.9,1.3-1.4,2.5-1.5v2.9l-1,1c-0.3,0.3-0.3,0.7,0,1
	c0.3,0.3,0.7,0.3,1,0l0.1-0.1v2.2c0,0.4,0.3,0.7,0.7,0.7c0.4,0,0.7-0.3,0.7-0.7v-1.3l0.1,0.1c0.3,0.3,0.7,0.3,1,0
	c0.3-0.3,0.3-0.7,0-1l-1-1v-0.9l0.6,0.4c0.3,0.2,0.8,0.2,1-0.2c0.2-0.3,0.2-0.8-0.2-1l-1.4-1v-1.3c1.3,0.1,2.2,0.7,2.6,1.6
	c0.9,1.8,0.1,4.5-1,6.6c0,0,0,0,0,0c-0.3,0.6-0.6,1.1-1,1.5c-0.7,0.9-1.1,1.1-1.3,1.1h0c-0.2,0-0.5-0.2-1.2-1.1
	C232.7,448.7,231,444.6,232.1,442.4z"/>
<path class="st3" d="M246.5,464.3L246.5,464.3c0.4,0,0.7-0.3,0.7-0.7c0-0.4-0.3-0.7-0.7-0.7h0c-0.4,0-0.7,0.3-0.7,0.7
	C245.8,463.9,246.1,464.3,246.5,464.3z"/>
<g>
	<g>
		<path class="st3" d="M67.5,351.5C67.5,351.5,67.5,351.5,67.5,351.5C67.5,351.5,67.5,351.5,67.5,351.5z"/>
	</g>
</g>
<g>
	<g>
		<path class="st3" d="M67.5,351.4C67.5,351.4,67.5,351.5,67.5,351.4C67.5,351.5,67.5,351.4,67.5,351.4z"/>
	</g>
</g>
<g>
	<g>
		<path class="st3" d="M67.7,351.5C67.7,351.5,67.7,351.5,67.7,351.5C67.7,351.5,67.7,351.5,67.7,351.5z"/>
	</g>
</g>
<g>
	<g>
		<path class="st3" d="M67.4,351.4C67.4,351.4,67.4,351.4,67.4,351.4C67.3,351.4,67.4,351.4,67.4,351.4z"/>
	</g>
</g>
<g>
	<g>
		<path class="st3" d="M67.5,351.4C67.5,351.4,67.5,351.4,67.5,351.4C67.5,351.4,67.5,351.4,67.5,351.4z"/>
	</g>
</g>
<g>
	<g>
		<path class="st3" d="M67.4,351.4C67.4,351.4,67.4,351.4,67.4,351.4C67.4,351.4,67.4,351.4,67.4,351.4z"/>
	</g>
</g>
<g>
	<g>
		<path class="st3" d="M67.4,351.4C67.4,351.4,67.4,351.4,67.4,351.4C67.4,351.4,67.4,351.4,67.4,351.4z"/>
	</g>
</g>
<g>
	<g>
		<path class="st3" d="M67.7,351.6C67.7,351.6,67.7,351.6,67.7,351.6C67.7,351.6,67.7,351.6,67.7,351.6z"/>
	</g>
</g>
<g>
	<g>
		<path class="st3" d="M67.4,351.4C67.4,351.4,67.4,351.4,67.4,351.4C67.4,351.4,67.4,351.4,67.4,351.4
			C67.4,351.4,67.4,351.4,67.4,351.4z"/>
	</g>
</g>
<g>
	<g>
		<path class="st3" d="M60.3,348.5c-0.6,3.8,3.6,7.8,7.9,7.4c-2.2,3.7-0.5,9.2,3.2,10.4c0.6,0.2,1.2-0.3,1.1-0.9
			c-0.2-2.6-0.7-8.2-0.7-8.3c2.6,3.5,8.7,4,11.1,0.7c0.4-0.5,0.1-1.2-0.5-1.4l-1.7-0.4c-1.4-0.3-2.8-0.7-4.3-1
			c0.2-0.7,0-1.5-0.4-2.1c8.7-4.5,15.7-5.5,15.9-5.5l2.1,3.4c0.1,0.2,0.4,0.3,0.6,0.2c0.2-0.1,0.3-0.4,0.2-0.6
			c-0.1-0.2-8.2-13.5-8.4-13.9c-0.1-0.2-0.4-0.3-0.6-0.2s-0.3,0.4-0.2,0.6l3.9,6.5c-1.1,0.3-2.2,0.6-3.4,1c-0.2,0.1-0.4,0.3-0.3,0.6
			c0.1,0.2,0.3,0.4,0.6,0.3c1.2-0.4,2.4-0.7,3.6-1l1.4,2.4c-0.3,0.1-1.3,0.2-3.3,0.7l-0.4-0.7c-0.1-0.2-0.4-0.3-0.6-0.2
			s-0.3,0.4-0.2,0.6l0.3,0.5c-1.9,0.5-3.8,1.2-5.7,1.9l-0.3-0.5c-0.1-0.2-0.4-0.3-0.6-0.2c-0.2,0.1-0.3,0.4-0.2,0.6l0.2,0.4
			c-1.8,0.8-3.6,1.6-5.3,2.5c-0.2-0.1-0.5-0.2-0.8-0.3c0.1-0.4,0.1-0.9,0-1.3c0.3-0.2,0.5-0.3,0.8-0.5l0.5,0.8
			c0.1,0.2,0.4,0.3,0.6,0.2c0.2-0.1,0.3-0.4,0.2-0.6l-0.5-0.8c2.1-1.2,4.3-2.3,6.6-3.2L83,347c0.1,0.2,0.4,0.3,0.6,0.2
			s0.3-0.4,0.2-0.6l-0.3-0.4c0.4-0.1,0.7-0.3,1.1-0.4c0.2-0.1,0.4-0.3,0.3-0.6c-0.1-0.2-0.3-0.4-0.6-0.3c-3.5,1.3-7.1,3-10.2,4.9
			c-0.5-0.6-1.2-1-2-1c0,0,0.3-5,0.3-5.8c0-0.6-0.6-1.1-1.2-0.9c-1.7,0.6-2.9,2.1-3.5,3.9c-0.1,0.2,0.1,0.5,0.3,0.6
			c0.2,0.1,0.5-0.1,0.6-0.3c0.6-1.8,1.8-2.9,2.9-3.3l-0.1,1.9l-0.7-0.1c-0.3,0-0.5,0.2-0.5,0.4c0,0.3,0.2,0.5,0.4,0.5l0.7,0.1
			l-0.1,1.5l-1.5-0.1c-0.3,0-0.5,0.2-0.5,0.4c0,0.3,0.2,0.5,0.4,0.5l1.5,0.2l0,0.9c-1.1,0.4-1.7,1.6-1.5,2.7
			c-0.2,0.1-0.4,0.2-0.5,0.3c-0.7-1.2-1-2.6-0.9-4c0-0.3-0.2-0.5-0.4-0.5c-0.3,0-0.5,0.2-0.5,0.4c-0.1,1.3,0.1,2.7,0.7,3.9
			c0,0,0,0,0,0c-0.1-0.1-1.4-0.9-2.2-1.3l0,0c-2.2-1.4,0.8,0.5-4.2-2.6c-0.3-0.2-0.6-0.2-0.8-0.1C60.5,347.9,60.3,348.2,60.3,348.5z
			 M71,359.3l-1.2,0c-0.3,0-0.5,0.2-0.5,0.4c0,0.3,0.2,0.5,0.4,0.5l1.3,0l0.2,2.4l-1.2,0.1c-0.3,0-0.4,0.2-0.4,0.5
			c0,0.3,0.2,0.4,0.5,0.4l1.2-0.1l0.2,1.9c-3.3-1.1-4.6-6.4-2.3-9.5c0.4,0.3,1,0.4,1.5,0.4L71,359.3z M75.5,354.7
			c-0.1,0.3-0.3,0.6-0.6,0.8c-0.2,0.2-0.2,0.4-0.1,0.6c0.2,0.2,0.4,0.2,0.6,0.1c0.2-0.1,0.4-0.3,0.5-0.5l0.6,0.2l-0.4,1.9
			c-0.1,0.2,0.1,0.5,0.3,0.5c0.2,0.1,0.5-0.1,0.5-0.3l0.4-1.9l2,0.5l-0.2,0.5c-0.1,0.2,0.1,0.5,0.3,0.6c0.2,0.1,0.5-0.1,0.6-0.3
			l0.2-0.6l1.7,0.4c-2.2,3-8.3,2.1-10-1.4c0,0,0,0,0,0c0.3,0.4,0.7,0.7,1.2,0.8c0.2,0.1,0.5-0.1,0.6-0.3c0.1-0.2-0.1-0.5-0.3-0.6
			c-0.4-0.1-0.7-0.3-0.9-0.6c0.4-0.6,0.5-1.3,0.3-2C74.1,352.1,75.9,353.3,75.5,354.7z M69.9,355.2L69.9,355.2
			C69.9,355.2,69.9,355.2,69.9,355.2c-1.1-0.6-1.1-2.2,0.1-2.8c0.7-0.3,1.5-0.1,2,0.6C72.8,354.4,71.3,355.9,69.9,355.2z M72,349.7
			c1.2,0,2,1.2,1.4,2.2c-0.3,0.1-0.7,0.2-0.9,0.4c-0.5-0.6-1.2-0.9-2-0.9C70.5,350.5,71.1,349.7,72,349.7z M63,349.7l-0.5,0.7
			c-0.1,0.2-0.1,0.5,0.1,0.6c0.2,0.1,0.5,0.1,0.6-0.1l0.5-0.7l1.6,1l-0.8,1.3c-0.1,0.2-0.1,0.5,0.2,0.6c0.2,0.1,0.5,0.1,0.6-0.2
			l0.8-1.3l2.2,1.4c-0.2,0.6-0.2,1.3,0.1,1.9c-3.8,0.5-7.8-3-7.3-6.3L63,349.7z"/>
	</g>
</g>
<g>
	<g>
		<path class="st3" d="M67.5,351.4C67.5,351.4,67.5,351.4,67.5,351.4C67.5,351.4,67.5,351.4,67.5,351.4
			C67.5,351.4,67.5,351.4,67.5,351.4z"/>
	</g>
</g>
<g>
	<g>
		<path class="st3" d="M67.7,351.6C67.7,351.6,67.7,351.6,67.7,351.6C67.7,351.6,67.7,351.6,67.7,351.6z"/>
	</g>
</g>
<g>
	<g>
		<path class="st3" d="M67.7,351.6C67.8,351.6,67.7,351.6,67.7,351.6L67.7,351.6z"/>
	</g>
</g>
<g>
	<g>
		<g>
			<path class="st3" d="M67.6,351.5C67.6,351.5,67.6,351.5,67.6,351.5C67.6,351.5,67.6,351.5,67.6,351.5z"/>
			<path class="st3" d="M67.7,351.5C67.6,351.5,67.6,351.5,67.7,351.5C67.6,351.5,67.6,351.5,67.7,351.5
				C67.6,351.5,67.6,351.5,67.7,351.5z"/>
			<path class="st3" d="M67.6,351.5C67.6,351.5,67.6,351.5,67.6,351.5C67.6,351.5,67.6,351.5,67.6,351.5
				C67.6,351.5,67.6,351.5,67.6,351.5z"/>
		</g>
	</g>
</g>
<g>
	<g>
		<g>
			<path class="st4" d="M135.6,456.2c-0.3-0.6-1.1-0.9-1.7-0.6c-0.6,0.3-0.9,1.1-0.6,1.7c0.3,0.6,1.1,0.9,1.7,0.6
				C135.6,457.6,135.9,456.8,135.6,456.2z M134,457c-0.1-0.2,0-0.5,0.2-0.6c0.2-0.1,0.5,0,0.6,0.2c0.1,0.2,0,0.5-0.2,0.6
				C134.4,457.3,134.1,457.2,134,457z"/>
			<path class="st4" d="M192.3,467.6c0.3,0.6,1.1,0.9,1.7,0.6c0.6-0.3,0.9-1.1,0.6-1.7c-0.3-0.6-1.1-0.9-1.7-0.6
				C192.2,466.2,192,467,192.3,467.6z M193.8,466.8c0.1,0.2,0,0.5-0.2,0.6s-0.5,0-0.6-0.2c-0.1-0.2,0-0.5,0.2-0.6
				C193.5,466.5,193.7,466.6,193.8,466.8z"/>
			<circle class="st4" cx="165.2" cy="455.6" r="0.5"/>
			<circle class="st4" cx="176.7" cy="478.3" r="0.5"/>
			<circle class="st4" cx="74.7" cy="430.3" r="0.5"/>
		</g>
	</g>
</g>
<g>
	<g>
		<g>
			<path class="st4" d="M397.7,415c-0.6-0.3-1.4,0-1.7,0.6c-0.3,0.6,0,1.4,0.6,1.7c0.6,0.3,1.4,0,1.7-0.6
				C398.6,416,398.3,415.3,397.7,415z M396.9,416.6c-0.2-0.1-0.3-0.4-0.2-0.6c0.1-0.2,0.4-0.3,0.6-0.2s0.3,0.4,0.2,0.6
				C397.4,416.6,397.2,416.7,396.9,416.6z"/>
			<path class="st4" d="M449.2,388.8c0.6,0.3,1.4,0,1.7-0.6c0.3-0.6,0-1.4-0.6-1.7c-0.6-0.3-1.4,0-1.7,0.6
				C448.3,387.7,448.6,388.5,449.2,388.8z M450,387.2c0.2,0.1,0.3,0.4,0.2,0.6s-0.4,0.3-0.6,0.2c-0.2-0.1-0.3-0.4-0.2-0.6
				C449.5,387.2,449.7,387.1,450,387.2z"/>
			<circle class="st4" cx="420.5" cy="396.1" r="0.5"/>
			<circle class="st4" cx="443.7" cy="406.9" r="0.5"/>
			<circle class="st4" cx="333.9" cy="432.4" r="0.5"/>
		</g>
	</g>
</g>
<g>
	<path class="st3" d="M337.7,417c0.6,0.8,1.9,1,2.7,0.2c0.8,0.4-3-1.6,12.7,6.8l0,0l5.4,2.9c1.1,0.6,2.3-0.3,2.1-1.5
		c-0.1-0.5-0.6-4.1-0.7-4.8l6.4,3.5l0,0c1,0.5,2.1-0.3,1.9-1.4l-0.9-5.9c0-0.2,0.2-0.4,0.4-0.3c1,0.5,2.1-0.3,1.9-1.4l-1.4-9.6
		l0.2,0.1c0.7,0.4,1.5-0.2,1.4-1l0,0c0,0,0,0,0,0l-1.5-10.2l0.4-0.3c0.3-0.2,0.3-0.5,0.1-0.8c-0.2-0.3-0.5-0.3-0.8-0.1
		c-0.5,0.4-23.2,16.3-23.7,16.7c-0.3,0.2-0.3,0.5-0.1,0.8s0.5,0.3,0.8,0.1l5.2-3.7c0.2-0.1,0.5-0.1,0.6,0.1c0.1,0.2,0.1,0.5-0.2,0.7
		c-0.4,0.2-0.5,0.7-0.4,1.1c0.2,0.5,0.1,1-0.4,1.3c-0.3,0.2-0.7,0.3-1.1,0.1c-0.3-0.2-0.8-0.1-1,0.2c-0.1,0.1-0.2,0.2-0.4,0.3
		c-0.7,0.2-0.4,0.8-1,1c-0.4,0.2-0.6,0.7-0.4,1.1c0.4,0.8,0.2,1.8-0.6,2.3c-0.5,0.4-1.2,0.4-1.8,0.2c-0.3-0.2-0.7-0.1-1,0.1
		c-0.1,0.1-0.1,0.1-0.2,0.2c-0.4,0.6-1.2,0.7-1.8,0.3c-0.4-0.2-0.9-0.2-1.2,0.2c-0.3,0.4-0.8,0.3-1.1,0c-0.2-0.3-0.2-0.8,0.1-1
		l4.2-3c0.3-0.2,0.3-0.5,0.1-0.8c-0.2-0.3-0.5-0.3-0.8-0.1l-4.2,3C337.2,415,337,416.2,337.7,417z M359.5,425.6
		c0,0.3-0.2,0.4-0.5,0.3c-0.4-0.2-3.7-2-5-2.7l0.5-2.9c0-0.1,0.1-0.1,0.1-0.1l1.6,0.2c0.7,0.1,1.4-0.5,1.4-1.2l0.1-1
		c0-0.1,0.1-0.1,0.2-0.1l0.5,0.1C359.1,423.2,359.1,423,359.5,425.6z M368.8,404.5l-3.1-1.7l0.2-1.2l1.2,0.1c0.5,0.1,1-0.3,1.2-0.7
		L368.8,404.5z M367.4,395.2l0.6,3.7c-0.8,0.3-0.7,1.1-0.8,1.7l-1.2-0.1c-0.6-0.1-1.1,0.4-1.2,0.9l-0.1,0.8l-4.1-2.2L367.4,395.2
		L367.4,395.2z M357.1,402.4l2.3-1.6l7.6,4.1l1.6,10.4c0,0.1-0.1,0.3-0.3,0.2c-1.1-0.6-2.3,0.3-2.1,1.5l0.9,5.9
		c0,0.1-0.1,0.3-0.3,0.2l0,0l-7.2-3.9C359.5,418.5,357.3,403.8,357.1,402.4z M343,417c0.2-0.1,0.3-0.2,0.4-0.4
		c0.9,0.4,2,0.3,2.8-0.3c1.1-0.8,1.5-2.2,1.1-3.4c0.3-0.2,0.6-0.5,0.7-0.9c0.3-0.1,0.5-0.3,0.7-0.5c0.7,0.2,1.4,0.1,2-0.3
		c0.8-0.6,1.1-1.6,0.8-2.5c0.6-0.5,0.8-1.5,0.3-2.2l0,0c-0.1-0.1-0.2-0.3-0.3-0.4l4.4-3.1l2.1,13.8l-0.2,0c0,0,0,0,0,0
		c-0.7-0.1-1.4,0.4-1.4,1.2l-0.1,1c0,0.1-0.1,0.1-0.1,0.1l-1.6-0.2c-0.7-0.1-1.3,0.4-1.4,1.1l-0.4,2.5l-10.1-5.5
		C342.9,417.1,342.9,417.1,343,417z"/>
</g>
<g>
	<g>
		<g>
			<path class="st3" d="M165.8,78.2c-3.7,2-8.2,1.7-11.7-0.7l-0.2-0.1c-0.3-0.2-0.6-0.4-0.8-0.5c0.2-0.1,0.3-0.3,0.4-0.6
				c0.1,0,0.2,0,0.3,0c0,0,0,0,0,0c0.1,0,0.2-0.1,0.2-0.2l0.3-1c0.3-0.9-0.2-2-1.2-2.3l-1-0.3c0.1-0.1,0.2-0.3,0.3-0.5
				c0.2-0.7-0.2-1.5-0.9-1.8c-0.7-0.2-1.5,0.2-1.8,0.9c-0.1,0.2-0.1,0.4-0.1,0.6l-1.4-0.4c-0.2-0.1-0.4,0-0.5,0.3l-0.6,2l-0.4,0
				l-0.1-0.7c-0.1-0.5-0.4-0.9-0.8-1.1c-0.4-0.3-0.9-0.4-1.4-0.3l-1.1,0.2c0-0.2,0-0.4,0-0.6c-0.1-0.4-0.3-0.7-0.6-0.9
				c-0.3-0.2-0.7-0.3-1.1-0.2c-0.4,0.1-0.7,0.3-0.9,0.6c-0.2,0.3-0.3,0.7-0.2,1.1c0,0.2,0.1,0.4,0.2,0.5l-1.4,0.3
				c-0.2,0-0.4,0.3-0.3,0.5l0.5,2.4c0,0.1,0.1,0.2,0.2,0.3c0.1,0,0.1,0.1,0.2,0.1c0.1,0.2,0.2,0.5,0.4,0.6c-0.3,0.1-0.6,0.3-0.8,0.4
				l-3.9,2c-0.2,0.1-0.3,0.4-0.2,0.6l10.1,19.3c0.1,0.2,0.4,0.3,0.6,0.2c0.2-0.1,0.3-0.4,0.2-0.6l-9.1-17.4l1.4-0.7l1.2,2.4
				c0.1,0.2,0.4,0.3,0.6,0.2c0.2-0.1,0.3-0.4,0.2-0.6l-1.2-2.4l1.4-0.7c0,0,0,0,0.1,0L150,96c0.1,0.2,0.4,0.3,0.6,0.2
				c0.2-0.1,0.3-0.4,0.2-0.6l-9.1-17.4c0.5-0.2,1-0.4,1.5-0.5l9,17.2c0.1,0.2,0.4,0.3,0.6,0.2c0.2-0.1,0.3-0.4,0.2-0.6l-8.9-17
				c0.6-0.1,1.1-0.2,1.7-0.2l8.6,16.4c0.1,0.2,0.4,0.3,0.6,0.2c0.2-0.1,0.3-0.4,0.2-0.6l-8.4-16.1c0.7,0,1.3,0.1,2,0.3l7.9,15
				c0.1,0.2,0.4,0.3,0.6,0.2c0.2-0.1,0.3-0.4,0.2-0.6l-7.5-14.4c0.8,0.3,1.6,0.7,2.4,1.1l4.3,8.2c0.1,0.2,0.4,0.3,0.6,0.2
				c0.2-0.1,0.3-0.4,0.2-0.6l-3.6-6.9c0.8,0.5,1.6,0.8,2.4,1.1l4.9,9.3c0.1,0.2,0.4,0.3,0.6,0.2c0.2-0.1,0.3-0.4,0.2-0.6l-4.5-8.6
				c0.7,0.2,1.3,0.3,2,0.4l3.9,7.4c0.1,0.2,0.4,0.3,0.6,0.2c0.2-0.1,0.3-0.4,0.2-0.6l-3.7-7c0.6,0,1.2,0,1.8,0l3.3,6.3
				c0.1,0.2,0.4,0.3,0.6,0.2c0.2-0.1,0.3-0.4,0.2-0.6l-3.1-6c0.5-0.1,1.1-0.2,1.6-0.4l2.9,5.6c0.1,0.2,0.4,0.3,0.6,0.2
				c0.2-0.1,0.3-0.4,0.2-0.6l-2.9-5.5c0.5-0.2,1-0.4,1.5-0.6l2.8,5.3c0.1,0.2,0.4,0.3,0.6,0.2c0.2-0.1,0.3-0.4,0.2-0.6l-3-5.7l0,0
				l-0.8-1.5C166.3,78.1,166,78.1,165.8,78.2z M152,76.3c-0.1,0-0.1,0-0.2-0.1c-0.2-0.1-0.3-0.3-0.2-0.5l1,0.3
				C152.6,76.2,152.3,76.3,152,76.3z M150.5,71.2c0-0.2,0.2-0.3,0.3-0.3c0.1-0.1,0.3-0.1,0.5,0c0.3,0.1,0.5,0.4,0.4,0.7
				c-0.1,0.3-0.4,0.5-0.7,0.4l0,0C150.6,71.9,150.4,71.5,150.5,71.2z M148.4,72l2.2,0.7c0,0,0,0,0,0s0,0,0,0l2.2,0.7
				c0.5,0.2,0.8,0.7,0.6,1.2l-0.2,0.6l-5.4-1.7L148.4,72z M150.9,75.4c0,0.1-0.1,0.2-0.1,0.4c-0.4-0.1-0.8-0.3-1.2-0.4
				c0.1-0.1,0.1-0.2,0.2-0.3L150.9,75.4z M148,74.4l1,0.3c-0.1,0.2-0.4,0.4-0.7,0.3c-0.1,0-0.2-0.1-0.3-0.3
				C148,74.7,148,74.6,148,74.4z M147.2,74.2c-0.1,0.2-0.1,0.5,0,0.7c-0.3,0-0.5,0-0.8,0c0.1-0.2,0.1-0.5,0.1-0.7L147.2,74.2z
				 M141.5,71.2c-0.1-0.3,0.1-0.5,0.3-0.6c0,0,0.1,0,0.2-0.1c0.3-0.1,0.6,0.1,0.7,0.5c0.1,0.3-0.1,0.6-0.5,0.7
				C141.9,71.8,141.6,71.6,141.5,71.2z M140.1,73l4.6-0.9c0.5-0.1,1.1,0.2,1.2,0.8l0.1,0.6l-5.5,1.1L140.1,73z M145.7,74.3
				c0,0.1,0,0.2-0.1,0.3c-0.1,0.1-0.2,0.2-0.3,0.2c-0.1,0-0.3,0-0.4-0.1c-0.1-0.1-0.2-0.2-0.2-0.3L145.7,74.3z M144,75
				c-0.4,0.1-0.8,0.1-1.3,0.2c0-0.1,0-0.3,0-0.4l1.1-0.2C143.9,74.8,144,74.9,144,75z M142,75.1c0,0.1,0,0.2-0.1,0.3
				c-0.1,0.1-0.2,0.2-0.3,0.2c-0.1,0-0.3,0-0.4-0.1c-0.1-0.1-0.2-0.2-0.2-0.3L142,75.1z M166.2,79.8c-4.2,2-9.2,1.7-13-1l-0.2-0.1
				c-3.7-2.6-8.5-2.9-12.6-0.8l-3.5,1.8l-0.4-0.7l3.5-1.8c4.3-2.2,9.4-1.9,13.4,0.8l0.2,0.1c3.6,2.5,8.3,2.8,12.2,0.9L166.2,79.8
				L166.2,79.8z"/>
		</g>
	</g>
	<g>
		<g>
			<path class="st3" d="M138,73.5l-2.9,1c-0.2,0.1-0.3,0.3-0.2,0.5c0.1,0.2,0.3,0.3,0.5,0.2l2.9-1c0,0,0,0,0.1,0
				c0.2-0.1,0.3-0.3,0.2-0.5C138.4,73.5,138.2,73.4,138,73.5z"/>
		</g>
	</g>
	<g>
		<g>
			<path class="st3" d="M138.6,74.7l-2.9,1c-0.2,0.1-0.3,0.3-0.2,0.5c0.1,0.2,0.3,0.3,0.5,0.2l2.9-1c0,0,0,0,0.1,0
				c0.2-0.1,0.3-0.3,0.2-0.5C139.1,74.8,138.8,74.7,138.6,74.7z"/>
		</g>
	</g>
	<g>
		<g>
			<path class="st3" d="M140.9,83c-0.2,0.1-0.3,0.4-0.2,0.6l7.1,13.6c0.1,0.2,0.4,0.3,0.6,0.2c0.2-0.1,0.3-0.4,0.2-0.6l-7.1-13.6
				C141.3,83,141.1,82.9,140.9,83z"/>
		</g>
	</g>
	<g>
		<g>
			<path class="st3" d="M157.3,88.2c-0.2,0.1-0.3,0.4-0.2,0.6l1.5,2.8c0.1,0.2,0.4,0.3,0.6,0.2s0.3-0.4,0.2-0.6l-1.5-2.8
				C157.7,88.1,157.5,88.1,157.3,88.2z"/>
		</g>
	</g>
</g>
</svg>
