<svg xmlns="http://www.w3.org/2000/svg" xmlns:xlink="http://www.w3.org/1999/xlink" viewBox="0 0 178.5 178.5"><defs><style>.cls-1{fill:#fff;}</style><symbol id="webdev" data-name="webdev" viewBox="0 0 94.45 94.45"><g id="lab"><path class="cls-1" d="M61,11a7.38,7.38,0,0,0-10.44,0l-4.16,4.17a7.38,7.38,0,0,0-1.07,9.1L5.3,40.34A8.85,8.85,0,0,0,2.62,54.73L40.16,91.86a8.8,8.8,0,0,0,6,2.59h.23a8.93,8.93,0,0,0,1.8-.18,8.81,8.81,0,0,0,6.42-5.4L70.42,49.39a7.38,7.38,0,0,0,9.26-1l4.16-4.15a7.37,7.37,0,0,0,0-10.45ZM49.17,86.68a3,3,0,0,1-4.83,1L6.77,50.53a3,3,0,0,1,.9-4.79L26,38.39c12.37,4.11,24.73.15,37.1,13.35Zm30.5-46.6L75.5,44.25a1.47,1.47,0,0,1-2.09,0L68.19,39,64,49.63l.36-.89c-8.89-8.87-17.92-10-26.06-11-2.62-.32-5.16-.66-7.65-1.2l25.06-10-5.06-5.06a1.47,1.47,0,0,1,0-2.09l4.17-4.18a1.48,1.48,0,0,1,2.09,0L79.67,38A1.47,1.47,0,0,1,79.67,40.08Z"/><path class="cls-1" d="M48.7,62a7.38,7.38,0,1,0-7.38-7.38A7.39,7.39,0,0,0,48.7,62Zm0-11.81a4.43,4.43,0,1,1-4.43,4.43A4.43,4.43,0,0,1,48.7,50.18Z"/><path class="cls-1" d="M87.07,0a7.38,7.38,0,1,0,7.38,7.38A7.39,7.39,0,0,0,87.07,0Zm0,11.81A4.43,4.43,0,1,1,91.5,7.38,4.43,4.43,0,0,1,87.07,11.81Z"/><path class="cls-1" d="M23.61,50.18a5.9,5.9,0,1,0,5.9-5.9A5.91,5.91,0,0,0,23.61,50.18Zm5.9-3a3,3,0,1,1-3,3A3,3,0,0,1,29.52,47.22Z"/><circle class="cls-1" cx="38.37" cy="67.89" r="2.95"/><circle class="cls-1" cx="85.59" cy="23.61" r="2.95"/></g></symbol></defs><title>flask</title><g id="Layer_2" data-name="Layer 2"><g id="mobile"><use width="94.45" height="94.45" transform="scale(1.89)" xlink:href="#webdev"/></g></g></svg>