<?xml version="1.0" encoding="utf-8"?>
<!-- Generator: Adobe Illustrator 23.0.3, SVG Export Plug-In . SVG Version: 6.00 Build 0)  -->
<svg version="1.1" id="Layer_1" xmlns="http://www.w3.org/2000/svg" xmlns:xlink="http://www.w3.org/1999/xlink" x="0px" y="0px"
	 viewBox="0 0 97.3 97.3" style="enable-background:new 0 0 97.3 97.3;" xml:space="preserve">
<style type="text/css">
	.st0{fill:#FFFFFF;}
	.st1{fill:#222727;stroke:#222727;stroke-width:0.75;stroke-miterlimit:10;}
</style>
<title>like_hvr</title>
<g>
	<g id="Desktop">
		<g id="nav">
			<g id="like">
				<circle class="st0" cx="48.7" cy="48.7" r="48.7"/>
				<g>
					<g>
						<path class="st1" d="M72.1,36.8c-0.3-0.5-0.9-0.6-1.4-0.4c-0.5,0.3-0.6,0.9-0.4,1.4c2.9,5.2,2.1,11.7-2.2,16l-0.8,0.8
							c-0.2-0.5-0.5-0.9-0.8-1.3L56.4,43c0.7-0.3,1.3-0.8,1.8-1.3l2-2c0.4-0.4,0.4-1,0-1.4c-0.4-0.4-1-0.4-1.4,0l-2,2
							c-0.9,0.9-2.1,1.4-3.4,1.4h-3.9c-0.3,0-0.5,0.1-0.7,0.3l-3,3c-0.9,0.9-2.3,0.9-3.2,0c-0.9-0.9-0.9-2.3,0-3.2l6.8-6.8
							c4.2-4.2,10.7-5.1,15.8-2.2c0.5,0.3,1.1,0.1,1.3-0.4c0.3-0.5,0.1-1.1-0.4-1.3c-2.8-1.6-6.2-2.2-9.4-1.8
							c-3,0.4-5.8,1.7-8.1,3.7c-2.8-2.5-6.4-3.8-10.1-3.8c-4.1,0-7.9,1.6-10.8,4.5c-2.9,2.9-4.5,6.7-4.5,10.8
							c0,4.1,1.6,7.9,4.5,10.8l0.4,0.4c0.1,0.1,0.1,0.1,0.2,0.2c0.1,0.9,0.4,1.7,1.1,2.4c0.7,0.7,1.7,1.1,2.6,1.1c0,0,0.1,0,0.1,0
							c0,0.1,0,0.1,0,0.2c0,1,0.4,1.9,1.1,2.6C34,62.7,35,63,35.9,63c0,0,0.1,0,0.1,0c0,0.1,0,0.1,0,0.2c0,1,0.4,1.9,1.1,2.6
							c0.7,0.7,1.7,1.1,2.6,1.1c0.1,0,0.1,0,0.2,0c0,1,0.3,2,1.1,2.8c0.7,0.7,1.6,1.1,2.6,1.1c1,0,1.9-0.4,2.6-1.1l1.4-1.4l1.9,1.9
							c0.7,0.7,1.6,1.1,2.6,1.1s1.9-0.4,2.6-1.1c0.8-0.8,1.1-1.8,1.1-2.8c0.1,0,0.1,0,0.2,0c1,0,1.9-0.4,2.6-1.1
							c0.8-0.8,1.1-1.8,1.1-2.8c0.1,0,0.1,0,0.2,0c1,0,1.9-0.4,2.6-1.1c0.8-0.8,1.1-1.8,1.1-2.8c0.1,0,0.1,0,0.2,0
							c1,0,1.9-0.4,2.6-1.1c0.4-0.4,0.6-0.8,0.8-1.2c0.1,0,0.2-0.1,0.3-0.2l1.9-1.9C74.4,50.3,75.5,42.8,72.1,36.8z M32.1,57.2
							c-0.5,0-0.9-0.2-1.2-0.5c-0.3-0.3-0.5-0.8-0.5-1.2c0-0.5,0.2-0.9,0.5-1.2l1.7-1.7c0.3-0.3,0.8-0.5,1.2-0.5
							c0.5,0,0.9,0.2,1.2,0.5c0.7,0.7,0.7,1.8,0,2.5l-1.7,1.7C33,57,32.5,57.2,32.1,57.2z M34.7,60.5c-0.3-0.3-0.5-0.8-0.5-1.2
							c0-0.5,0.2-0.9,0.5-1.2l1.7-1.7c0,0,0,0,0,0c0.3-0.3,0.8-0.5,1.2-0.5c0.5,0,0.9,0.2,1.2,0.5c0.7,0.7,0.7,1.8,0,2.5l-1.7,1.7
							C36.5,61.2,35.4,61.2,34.7,60.5z M38.6,64.4c-0.3-0.3-0.5-0.8-0.5-1.2c0-0.5,0.2-0.9,0.5-1.2l1.7-1.7c0,0,0,0,0,0
							c0.3-0.3,0.8-0.5,1.2-0.5s0.9,0.2,1.2,0.5c0.7,0.7,0.7,1.8,0,2.5l-1.7,1.7C40.4,65.1,39.3,65.1,38.6,64.4z M46.7,66.6L45,68.3
							c-0.3,0.3-0.8,0.5-1.2,0.5c-0.5,0-0.9-0.2-1.2-0.5c-0.7-0.7-0.7-1.8,0-2.5l1.7-1.7c0,0,0,0,0,0c0.3-0.3,0.8-0.5,1.2-0.5
							c0.5,0,0.9,0.2,1.2,0.5c0.3,0.3,0.5,0.8,0.5,1.2C47.2,65.8,47,66.3,46.7,66.6z M65.2,57.1c-0.3,0.3-0.8,0.5-1.2,0.5
							c-0.5,0-0.9-0.2-1.2-0.5L58.6,53c0,0,0,0,0,0l-3.9-3.9c-0.4-0.4-1-0.4-1.4,0c-0.4,0.4-0.4,1,0,1.4l8,8c0.7,0.7,0.7,1.8,0,2.5
							c-0.3,0.3-0.8,0.5-1.2,0.5c-0.5,0-0.9-0.2-1.2-0.5l-8-8c-0.4-0.4-1-0.4-1.4,0c-0.4,0.4-0.4,1,0,1.4l3.9,3.9c0,0,0,0,0,0
							l4.1,4.1c0.7,0.7,0.7,1.8,0,2.5c-0.7,0.7-1.8,0.7-2.5,0l-4.1-4.1c-0.1-0.1-0.2-0.1-0.3-0.2l-1.2-1.2c-0.4-0.4-1-0.4-1.4,0
							c-0.4,0.4-0.4,1,0,1.4l5.5,5.5c0.7,0.7,0.7,1.8,0,2.5c-0.3,0.3-0.8,0.5-1.2,0.5c-0.5,0-0.9-0.2-1.2-0.5l-2.1-2.1
							c0.2-0.4,0.2-0.9,0.2-1.3c0-1-0.4-1.9-1.1-2.6c-0.7-0.7-1.6-1.1-2.6-1.1c-0.1,0-0.1,0-0.2,0c0-1-0.3-2-1.1-2.8
							c-0.7-0.7-1.6-1.1-2.6-1.1c-0.1,0-0.1,0-0.2,0c0-1-0.3-2-1.1-2.8c-0.7-0.7-1.6-1.1-2.6-1.1c-0.1,0-0.1,0-0.2,0
							c0-1-0.3-2-1.1-2.8c-1.5-1.5-3.8-1.5-5.3,0l-1.7,1.7c-0.2,0.2-0.4,0.5-0.6,0.7c-2.3-2.5-3.6-5.7-3.6-9.1
							c0-3.6,1.4-6.9,3.9-9.4c2.5-2.5,5.9-3.9,9.4-3.9c3.2,0,6.3,1.1,8.7,3.2l-6.1,6.1c-0.8,0.8-1.2,1.9-1.2,3c0,1.1,0.4,2.2,1.2,3
							c0.8,0.8,1.9,1.2,3,1.2s2.2-0.4,3-1.2l2.7-2.7h3.5c0.3,0,0.6,0,0.9-0.1l11,11C65.9,55.3,65.9,56.4,65.2,57.1z"/>
					</g>
				</g>
			</g>
		</g>
	</g>
</g>
</svg>
