<?xml version="1.0" encoding="utf-8"?>
<!-- Generator: Adobe Illustrator 23.0.3, SVG Export Plug-In . SVG Version: 6.00 Build 0)  -->
<svg version="1.1" id="Layer_1" xmlns="http://www.w3.org/2000/svg" xmlns:xlink="http://www.w3.org/1999/xlink" x="0px" y="0px"
	 viewBox="0 0 97.3 97.3" style="enable-background:new 0 0 97.3 97.3;" xml:space="preserve">
<style type="text/css">
	.st0{fill:#FFFFFF;}
	.st1{fill:#232728;}
</style>
<symbol  id="skills" viewBox="-48.7 -48.7 97.3 97.3">
	<circle class="st0" cx="0" cy="0" r="48.7"/>
	<path id="cup_3_" class="st1" d="M14.1-12.8l-1.4-4.3c-0.3-1-1.2-1.6-2.2-1.6h-21c-1,0-1.9,0.7-2.2,1.6l-1.4,4.3
		c-1.2,0.1-2.2,1.1-2.2,2.3V-7c0,1.3,1,2.3,2.3,2.3h1.2c0,0.1,0,0.2,0,0.3l2.3,21c0.1,1.2,1.1,2.1,2.3,2.1H8.2
		c1.2,0,2.2-0.9,2.3-2.1l2.3-21c0-0.1,0-0.2,0-0.3H14c1.3,0,2.3-1.1,2.3-2.3v-3.5C16.3-11.7,15.4-12.8,14.1-12.8z M-10.5-16.3h21
		l1.2,3.5h-23.3L-10.5-16.3z M-8.2,16.3l-0.4-3.5H8.5l-0.4,3.5H-8.2z M8.7,11.7H-8.7L-10,0h20L8.7,11.7z M10.1-1.2h-20.2l-0.4-3.5
		h21L10.1-1.2z M14-7h-28v-3.5h28V-7z"/>
</symbol>
<title>skills_hvr</title>
<g>
	<g id="Desktop">
		<g id="nav">
			
				<use xlink:href="#skills"  width="97.3" height="97.3" id="skills-3" x="-48.7" y="-48.7" transform="matrix(0.9999 0 0 0.9999 48.665 48.665)" style="overflow:visible;"/>
		</g>
	</g>
</g>
<path class="st1" d="M45.4,25.5c0.4-1.2,0.3-2.4-0.2-3.6c-0.5-1.3-1.2-2.2-0.2-3.5c1-1.4-1.3-2.7-2.3-1.3c-0.8,1.2-1.1,2.4-0.7,3.8
	c0.4,1.4,1.4,2.4,0.8,3.9C42.3,26.4,44.8,27.1,45.4,25.5z"/>
<path class="st1" d="M50.1,25.5c0.4-1.2,0.3-2.4-0.2-3.6c-0.5-1.3-1.2-2.2-0.2-3.5c1-1.4-1.3-2.7-2.3-1.3c-0.8,1.2-1.1,2.4-0.7,3.8
	c0.4,1.4,1.4,2.4,0.8,3.9C47,26.4,49.5,27.1,50.1,25.5z"/>
<path class="st1" d="M54.8,25.5c0.4-1.2,0.3-2.4-0.2-3.6c-0.5-1.3-1.2-2.2-0.2-3.5c1-1.4-1.3-2.7-2.3-1.3c-0.8,1.2-1.1,2.4-0.7,3.8
	c0.4,1.4,1.4,2.4,0.8,3.9C51.7,26.4,54.2,27.1,54.8,25.5z"/>
</svg>
