<?xml version="1.0" encoding="utf-8"?>
<!-- Generator: Adobe Illustrator 23.0.3, SVG Export Plug-In . SVG Version: 6.00 Build 0)  -->
<svg version="1.1" id="Layer_1" xmlns="http://www.w3.org/2000/svg" xmlns:xlink="http://www.w3.org/1999/xlink" x="0px" y="0px"
	 viewBox="0 0 59.2 59.2" style="enable-background:new 0 0 59.2 59.2;" xml:space="preserve">
<style type="text/css">
	.st0{fill:#FFFFFF;}
</style>
<title>back</title>
<g>
	<g id="Desktop">
		<g id="nav">
			<g>
				<path class="st0" d="M34.8,16c0.5-0.1,1.1,0.3,1.1,0.9c0.1,0.4-0.1,0.7-0.4,0.9L23.7,29.6l11.8,11.8c0.4,0.4,0.4,1.1,0,1.5
					s-1.1,0.4-1.5,0l-12-12c-0.7-0.7-0.7-1.8,0-2.5l12-12C34.3,16.1,34.5,16,34.8,16z"/>
				<path class="st0" d="M34.8,43.7c-0.4,0-0.8-0.2-1.1-0.5l-12-12c-0.9-0.9-0.9-2.3,0-3.2l12-12c0.2-0.3,0.6-0.5,1.1-0.5
					c0.8-0.1,1.6,0.5,1.7,1.3c0.1,0.5-0.1,1.1-0.6,1.4L24.4,29.6L35.9,41c0.6,0.6,0.6,1.6,0,2.2C35.6,43.5,35.2,43.7,34.8,43.7z
					 M35,16.5C34.9,16.5,34.9,16.5,35,16.5l-0.1,0c-0.1,0-0.3,0.1-0.4,0.2l-12,12c-0.5,0.5-0.5,1.3,0,1.8l12,12
					c0.2,0.2,0.6,0.2,0.8,0s0.2-0.6,0-0.8L23,29.6l12.2-12.1c0.2-0.2,0.3-0.3,0.2-0.5C35.4,16.7,35.2,16.5,35,16.5z"/>
			</g>
		</g>
	</g>
</g>
</svg>
