<?xml version="1.0" encoding="utf-8"?>
<!-- Generator: Adobe Illustrator 23.0.3, SVG Export Plug-In . SVG Version: 6.00 Build 0)  -->
<svg version="1.1" id="Layer_1" xmlns="http://www.w3.org/2000/svg" xmlns:xlink="http://www.w3.org/1999/xlink" x="0px" y="0px"
	 viewBox="0 0 97.3 97.3" style="enable-background:new 0 0 97.3 97.3;" xml:space="preserve">
<style type="text/css">
	.st0{fill:#FFFFFF;}
	.st1{fill:#222727;}
	.st2{fill:none;stroke:#222727;stroke-width:2;stroke-miterlimit:10;}
</style>
<title>bio_hvr</title>
<g>
	<g id="Desktop">
		<g id="nav">
			<circle class="st0" cx="48.7" cy="48.7" r="48.7"/>
			<path id="usericon" class="st1" d="M67.9,61.3c-3.6-2.2-7.6-3.8-11.8-4.7c2.3-3.1,3.9-6.6,4.8-10.4c1-4,0.6-11.8-3.2-16.6
				c-4-5-11.3-5.8-16.3-1.8c-0.7,0.5-1.3,1.1-1.8,1.8c-3.8,4.9-4.2,12.6-3.2,16.6c0.9,3.8,2.5,7.3,4.8,10.4
				c-4.2,0.9-8.2,2.5-11.8,4.7c-1.2,0.8-1.5,2.4-0.7,3.5c0.5,0.7,1.3,1.1,2.1,1.1h35.6c1.4,0,2.5-1.1,2.6-2.5
				C69,62.6,68.6,61.8,67.9,61.3L67.9,61.3z M54.1,55.1l-0.4,0.5c-3,3.5-7,3.5-10,0l-0.4-0.5C39.7,50.5,38,44.7,38.7,39
				c0.7-5.4,3.8-11.1,10-11.1s9.3,5.7,10,11.1C59.4,44.8,57.7,50.5,54.1,55.1z M30.9,63.5c3.4-2.1,7.1-3.5,10.9-4.3l3.2-0.7
				c2.2,1.6,5.2,1.6,7.5,0l3.2,0.7c3.9,0.8,7.5,2.3,10.9,4.3H30.9z"/>
		</g>
	</g>
</g>
<path class="st2" d="M41.3,38.5c0-1.3,1-2.3,2.3-2.3s2.3,1,2.3,2.3"/>
<path class="st2" d="M50.7,38.5c0-1.3,1-2.3,2.3-2.3s2.3,1,2.3,2.3"/>
</svg>
