<?xml version="1.0" encoding="utf-8"?>
<!-- Generator: Adobe Illustrator 23.0.3, SVG Export Plug-In . SVG Version: 6.00 Build 0)  -->
<svg version="1.1" id="Layer_1" xmlns="http://www.w3.org/2000/svg" xmlns:xlink="http://www.w3.org/1999/xlink" x="0px" y="0px"
	 viewBox="0 0 97.3 97.3" style="enable-background:new 0 0 97.3 97.3;" xml:space="preserve">
<style type="text/css">
	.st0{fill:#FFFFFF;}
	.st1{fill-rule:evenodd;clip-rule:evenodd;fill:#222727;}
</style>
<title>chat</title>
<g>
	<g id="Desktop">
		<g id="nav">
			<g id="contact">
				<circle class="st0" cx="48.7" cy="48.7" r="48.7"/>
				<g id="bubble">
					<path class="st1" d="M48.7,28.9c-12.8,0-23.1,7.8-23.1,17.3c0,6,4,11.2,10.1,14.3c0,0,0,0.1,0,0.1c0,2.6-1.9,5.4-2.8,6.8l0,0
						c-0.3,0.7,0,1.4,0.7,1.7c0.2,0.1,0.3,0.1,0.5,0.1c0.1,0,0.2,0,0.4,0c4.5-0.7,8.8-4.9,9.8-6.1c1.5,0.2,3,0.3,4.5,0.3
						c12.8,0,23.1-7.8,23.1-17.3S61.4,28.9,48.7,28.9z M48.7,60.7c-1.3,0-2.7-0.1-4-0.3c-0.1,0-0.3,0-0.4,0c-0.9,0-1.7,0.4-2.3,1
						c-1.3,1.4-2.8,2.7-4.5,3.7c0.6-1.3,0.9-2.8,1-4.2c0-0.1,0-0.2,0-0.3c0-1.1-0.6-2.1-1.5-2.6c-5.4-2.7-8.5-7.1-8.5-11.8
						c0-8,9.1-14.5,20.2-14.5s20.2,6.5,20.2,14.5S59.8,60.7,48.7,60.7z"/>
				</g>
			</g>
		</g>
	</g>
</g>
</svg>
