<svg xmlns="http://www.w3.org/2000/svg" viewBox="0 0 139.36 87.17"><defs><style>.cls-1{fill:#fff;}</style></defs><title>eye</title><g id="Layer_2" data-name="Layer 2"><g id="Mobile"><g id="eye"><path class="cls-1" d="M139.21,42.62a4.8,4.8,0,0,0-.09-.56c0-.07-.09-.11-.12-.18a2.84,2.84,0,0,0-.09-.32C126.26,17.35,98.73,0,69.68,0S13.1,17.32.45,41.53a2.81,2.81,0,0,0-.09.32c0,.07-.09.11-.12.18a4.07,4.07,0,0,0-.09.56,3.18,3.18,0,0,0,0,2,4.07,4.07,0,0,0,.09.56c0,.07.09.12.12.18a2.81,2.81,0,0,0,.09.32C13.1,69.82,40.63,87.17,69.68,87.17s56.58-17.32,69.23-41.53a2.82,2.82,0,0,0,.09-.32c0-.07.09-.11.12-.18a4.81,4.81,0,0,0,.09-.56,3.26,3.26,0,0,0,0-2ZM69.68,78.44c-24.49,0-48.46-13.92-60.41-34.87,12-21,36-34.85,60.41-34.85s48.46,13.92,60.41,34.87C118.08,64.57,94.14,78.44,69.68,78.44Z"/><path class="cls-1" d="M69.68,26.15h0A17.43,17.43,0,0,0,52.25,43.58a2.18,2.18,0,1,0,4.36,0A13.09,13.09,0,0,1,69.68,30.51h0a2.18,2.18,0,0,0,0-4.36Z"/><path class="cls-1" d="M69.58,13.07A30.53,30.53,0,1,0,100.11,43.6,30.53,30.53,0,0,0,69.58,13.07Zm0,56.7A26.17,26.17,0,1,1,95.75,43.6,26.2,26.2,0,0,1,69.58,69.77Z"/></g></g></g></svg>