<?xml version="1.0" encoding="utf-8"?>
<!-- Generator: Adobe Illustrator 23.0.3, SVG Export Plug-In . SVG Version: 6.00 Build 0)  -->
<svg version="1.1" id="Layer_1" xmlns="http://www.w3.org/2000/svg" xmlns:xlink="http://www.w3.org/1999/xlink" x="0px" y="0px"
	 viewBox="0 0 97.3 97.3" style="enable-background:new 0 0 97.3 97.3;" xml:space="preserve">
<style type="text/css">
	.st0{fill:#FFFFFF;}
	.st1{fill-rule:evenodd;clip-rule:evenodd;fill:#222727;}
</style>
<title>like</title>
<g>
	<g id="Desktop_1_">
		<g id="nav_1_">
			<g id="like">
				<circle class="st0" cx="48.7" cy="48.7" r="48.7"/>
				<g id="heart">
					<path class="st1" d="M69.4,33c-5.7-5.6-14.8-5.8-20.7-0.5c-5.9-5.3-15-5.1-20.7,0.5c-5.8,5.7-5.8,15.1-0.1,20.9L28,54
						l17.3,17.3c1.9,1.8,4.8,1.8,6.7,0l17.3-17.2c5.8-5.7,5.9-15.1,0.2-20.9C69.5,33.1,69.4,33.1,69.4,33z M67.1,51.9L49.8,69
						c-0.6,0.6-1.6,0.6-2.2,0L30.2,51.9c-4.6-4.5-4.6-11.9-0.1-16.5l0.1-0.1c4.5-4.4,11.7-4.6,16.3-0.3l2.1,1.9l2.1-1.9
						c4.7-4.2,11.8-4.1,16.3,0.3C71.6,39.8,71.6,47.2,67.1,51.9C67.2,51.8,67.2,51.8,67.1,51.9z"/>
				</g>
			</g>
		</g>
	</g>
</g>
</svg>
