<?xml version="1.0" encoding="utf-8"?>
<!-- Generator: Adobe Illustrator 23.0.3, SVG Export Plug-In . SVG Version: 6.00 Build 0)  -->
<svg version="1.1" id="Layer_1" xmlns="http://www.w3.org/2000/svg" xmlns:xlink="http://www.w3.org/1999/xlink" x="0px" y="0px"
	 viewBox="0 0 59.2 59.2" style="enable-background:new 0 0 59.2 59.2;" xml:space="preserve">
<style type="text/css">
	.st0{fill:#FFFFFF;}
</style>
<title>back</title>
<g>
	<g id="Desktop">
		<g id="nav">
			<g>
				<path class="st0" d="M22.7,43.2c-0.5,0.1-1.1-0.3-1.1-0.9c-0.1-0.4,0.1-0.7,0.4-0.9l11.8-11.8L22,17.8c-0.4-0.4-0.4-1.1,0-1.5
					c0.4-0.4,1.1-0.4,1.5,0l12,12c0.7,0.7,0.7,1.8,0,2.5l-12,12C23.3,43,23,43.2,22.7,43.2z"/>
				<path class="st0" d="M22.7,15.5c0.4,0,0.8,0.2,1.1,0.5l12,12c0.9,0.9,0.9,2.3,0,3.2l-12,12c-0.2,0.3-0.6,0.5-1.1,0.5
					c-0.8,0.1-1.6-0.5-1.7-1.3c-0.1-0.5,0.1-1.1,0.6-1.4l11.4-11.4L21.6,18.1c-0.6-0.6-0.6-1.6,0-2.2C21.9,15.7,22.3,15.5,22.7,15.5
					z M22.6,42.7C22.6,42.7,22.6,42.7,22.6,42.7l0.1,0c0.1,0,0.3-0.1,0.4-0.2l12-12c0.5-0.5,0.5-1.3,0-1.8l-12-12
					c-0.2-0.2-0.6-0.2-0.8,0s-0.2,0.6,0,0.8l12.2,12.2L22.3,41.7c-0.2,0.2-0.3,0.3-0.2,0.5C22.1,42.5,22.3,42.7,22.6,42.7z"/>
			</g>
		</g>
	</g>
</g>
</svg>
