<svg xmlns="http://www.w3.org/2000/svg" viewBox="0 0 32 32"><defs><style>.cls-1{fill:#fff;fill-rule:evenodd;}</style></defs><title>webdev</title><g id="Layer_2" data-name="Layer 2"><g id="Icons"><g id="news"><path class="cls-1" d="M29,0H7A3,3,0,0,0,4,3V5H3A3,3,0,0,0,0,8V28a4,4,0,0,0,4,4H28a4,4,0,0,0,4-4V3A3,3,0,0,0,29,0Zm1,28a2,2,0,0,1-2,2H4a2,2,0,0,1-2-2V8A1,1,0,0,1,3,7H4V27a1,1,0,1,0,2,0V3A1,1,0,0,1,7,2H29a1,1,0,0,1,1,1Z"/><path class="cls-1" d="M19.5,13h8a.5.5,0,0,0,0-1h-8a.5.5,0,0,0,0,1Z"/><path class="cls-1" d="M19.5,10h8a.5.5,0,0,0,0-1h-8a.5.5,0,0,0,0,1Z"/><path class="cls-1" d="M19.5,7h8a.5.5,0,0,0,0-1h-8a.5.5,0,0,0,0,1Z"/><path class="cls-1" d="M16.5,27h-8a.5.5,0,0,0,0,1h8a.5.5,0,0,0,0-1Z"/><path class="cls-1" d="M16.5,24h-8a.5.5,0,0,0,0,1h8a.5.5,0,0,0,0-1Z"/><path class="cls-1" d="M16.5,21h-8a.5.5,0,0,0,0,1h8a.5.5,0,0,0,0-1Z"/><path class="cls-1" d="M27.5,27h-8a.5.5,0,0,0,0,1h8a.5.5,0,0,0,0-1Z"/><path class="cls-1" d="M27.5,24h-8a.5.5,0,0,0,0,1h8a.5.5,0,0,0,0-1Z"/><path class="cls-1" d="M27.5,21h-8a.5.5,0,0,0,0,1h8a.5.5,0,0,0,0-1Z"/><path class="cls-1" d="M27.5,15H8.5a.5.5,0,0,0,0,1h19a.5.5,0,0,0,0-1Z"/><path class="cls-1" d="M27.5,18H8.5a.5.5,0,0,0,0,1h19a.5.5,0,0,0,0-1Z"/><path class="cls-1" d="M9,13h7a1,1,0,0,0,1-1V5a1,1,0,0,0-1-1H9A1,1,0,0,0,8,5v7A1,1,0,0,0,9,13Zm1-7h5v5H10Z"/></g></g></g></svg>